<?xml version="1.0" encoding="UTF-8" standalone="no"?>
<!DOCTYPE svg PUBLIC "-//W3C//DTD SVG 20010904//EN"
              "http://www.w3.org/TR/2001/REC-SVG-20010904/DTD/svg10.dtd">

<svg xmlns="http://www.w3.org/2000/svg"
     width="116.443mm" height="66.1609mm"
     viewBox="0 0 1320 750">
  <path id="Selection"
        fill="none" stroke="black" stroke-width="1"
        d="M 422.00,11.00
           C 422.00,11.00 425.00,11.00 425.00,11.00
             425.00,11.00 428.00,14.00 428.00,14.00
             428.00,14.00 427.00,19.00 427.00,19.00
             427.00,19.00 431.00,19.00 431.00,19.00
             426.92,27.96 417.02,37.95 410.00,45.00
             410.00,45.00 373.99,79.17 373.99,79.17
             373.99,79.17 320.83,122.04 320.83,122.04
             320.83,122.04 245.00,180.11 245.00,180.11
             245.00,180.11 208.00,208.00 208.00,208.00
             208.00,208.00 149.00,252.29 149.00,252.29
             142.06,257.31 128.24,268.70 121.18,271.00
             120.95,269.37 120.69,268.68 121.18,267.00
             122.91,263.08 133.28,255.28 137.00,252.47
             137.00,252.47 189.00,213.87 189.00,213.87
             189.00,213.87 272.00,152.73 272.00,152.73
             272.00,152.73 339.00,101.76 339.00,101.76
             351.59,91.40 386.27,63.89 395.00,53.00
             395.00,53.00 375.00,69.92 375.00,69.92
             375.00,69.92 334.00,102.77 334.00,102.77
             334.00,102.77 191.00,207.63 191.00,207.63
             191.00,207.63 137.04,248.26 137.04,248.26
             137.04,248.26 123.00,258.96 123.00,258.96
             118.97,261.33 117.10,259.68 118.17,256.96
             119.10,254.57 123.01,251.58 125.00,249.87
             125.00,249.87 142.00,236.63 142.00,236.63
             142.00,236.63 206.00,190.14 206.00,190.14
             206.00,190.14 246.00,161.15 246.00,161.15
             246.00,161.15 339.00,92.88 339.00,92.88
             339.00,92.88 390.00,50.17 390.00,50.17
             397.44,43.48 412.53,29.64 418.00,22.00
             393.83,46.17 376.02,61.59 349.00,82.50
             349.00,82.50 335.00,93.72 335.00,93.72
             335.00,93.72 322.28,102.45 322.28,102.45
             322.28,102.45 314.00,109.12 314.00,109.12
             314.00,109.12 293.17,123.86 293.17,123.86
             293.17,123.86 257.00,150.44 257.00,150.44
             257.00,150.44 219.00,177.66 219.00,177.66
             219.00,177.66 155.00,223.88 155.00,223.88
             155.00,223.88 133.00,239.71 133.00,239.71
             128.23,243.11 123.61,247.14 118.00,249.00
             119.97,241.81 128.41,235.83 134.01,231.08
             134.01,231.08 162.00,209.37 162.00,209.37
             162.00,209.37 178.00,197.00 178.00,197.00
             178.00,197.00 128.00,232.20 128.00,232.20
             128.00,232.20 107.00,246.00 107.00,246.00
             108.06,239.46 111.58,237.64 116.28,233.50
             116.28,233.50 142.09,213.25 142.09,213.25
             142.09,213.25 218.00,158.55 218.00,158.55
             218.00,158.55 249.00,137.00 249.00,137.00
             249.00,137.00 210.00,162.66 210.00,162.66
             188.21,176.94 140.63,209.99 121.00,225.60
             121.00,225.60 87.00,253.43 87.00,253.43
             81.09,258.49 76.21,264.75 69.00,268.00
             69.67,259.72 77.10,253.85 83.00,248.72
             83.00,248.72 123.72,216.59 123.72,216.59
             167.28,184.56 211.79,153.81 257.00,124.14
             257.00,124.14 292.00,100.80 292.00,100.80
             298.32,96.57 308.02,89.22 315.00,87.00
             315.00,87.00 316.00,88.00 316.00,88.00
             312.65,94.93 304.77,98.26 299.00,103.00
             312.58,96.38 346.24,71.01 359.17,60.71
             366.42,54.93 381.44,44.09 387.00,38.00
             387.00,38.00 365.00,55.00 365.00,55.00
             360.30,58.70 357.07,62.07 351.00,63.00
             353.28,56.85 360.84,52.36 366.00,48.47
             366.00,48.47 388.00,31.56 388.00,31.56
             393.85,26.63 396.96,22.72 404.00,19.00
             404.00,19.00 404.00,23.00 404.00,23.00
             404.00,23.00 409.00,20.00 409.00,20.00
             408.94,26.43 402.38,30.05 398.00,34.08
             398.00,34.08 361.00,66.00 361.00,66.00
             368.78,61.48 386.76,45.75 393.99,39.17
             401.33,32.49 416.69,18.42 422.00,11.00 Z
           M 425.00,14.00
           C 425.00,14.00 424.00,14.00 424.00,14.00
             424.00,14.00 425.00,15.00 425.00,15.00
             425.00,15.00 425.00,14.00 425.00,14.00 Z
           M 424.00,15.00
           C 424.00,15.00 420.00,20.00 420.00,20.00
             420.00,20.00 424.00,15.00 424.00,15.00 Z
           M 427.00,19.00
           C 427.00,19.00 426.00,19.00 426.00,19.00
             426.00,19.00 427.00,20.00 427.00,20.00
             427.00,20.00 427.00,19.00 427.00,19.00 Z
           M 420.00,20.00
           C 420.00,20.00 419.00,20.00 419.00,20.00
             419.00,20.00 420.00,21.00 420.00,21.00
             420.00,21.00 420.00,20.00 420.00,20.00 Z
           M 419.00,21.00
           C 419.00,21.00 418.00,21.00 418.00,21.00
             418.00,21.00 419.00,22.00 419.00,22.00
             419.00,22.00 419.00,21.00 419.00,21.00 Z
           M 404.00,23.00
           C 404.00,23.00 403.00,23.00 403.00,23.00
             403.00,23.00 404.00,24.00 404.00,24.00
             404.00,24.00 404.00,23.00 404.00,23.00 Z
           M 403.00,24.00
           C 403.00,24.00 402.00,24.00 402.00,24.00
             402.00,24.00 403.00,25.00 403.00,25.00
             403.00,25.00 403.00,24.00 403.00,24.00 Z
           M 402.00,25.00
           C 402.00,25.00 401.00,25.00 401.00,25.00
             401.00,25.00 402.00,26.00 402.00,26.00
             402.00,26.00 402.00,25.00 402.00,25.00 Z
           M 401.00,26.00
           C 397.05,27.84 395.15,29.17 393.00,33.00
             393.00,33.00 401.00,26.00 401.00,26.00 Z
           M 123.92,282.00
           C 123.73,280.43 123.34,279.76 123.92,278.04
             125.06,273.97 135.40,266.87 139.00,263.92
             139.00,263.92 193.00,222.99 193.00,222.99
             193.00,222.99 226.00,198.03 226.00,198.03
             226.00,198.03 288.00,151.23 288.00,151.23
             313.72,131.52 339.59,112.09 364.00,90.72
             379.55,77.10 395.38,63.28 409.29,47.96
             409.29,47.96 427.44,27.59 427.44,27.59
             428.91,26.46 429.38,26.52 431.00,26.00
             429.23,34.70 421.22,41.50 415.58,48.00
             399.76,66.23 381.08,82.26 363.00,98.15
             363.00,98.15 294.00,153.04 294.00,153.04
             294.00,153.04 211.00,217.33 211.00,217.33
             211.00,217.33 162.28,254.50 162.28,254.50
             153.70,261.13 132.63,278.09 123.92,282.00 Z
           M 393.00,33.00
           C 393.00,33.00 392.00,33.00 392.00,33.00
             392.00,33.00 393.00,34.00 393.00,34.00
             393.00,34.00 393.00,33.00 393.00,33.00 Z
           M 392.00,34.00
           C 392.00,34.00 387.00,38.00 387.00,38.00
             387.00,38.00 392.00,34.00 392.00,34.00 Z
           M 211.00,55.00
           C 216.43,48.79 228.28,44.69 236.00,41.55
             242.05,39.09 243.07,37.63 250.00,37.00
             250.00,37.00 249.00,40.00 249.00,40.00
             249.00,40.00 251.00,43.00 251.00,43.00
             251.00,43.00 243.00,47.00 243.00,47.00
             246.58,48.55 244.07,49.98 242.00,52.00
             242.00,52.00 246.00,52.00 246.00,52.00
             240.39,59.28 225.49,64.61 217.00,68.63
             199.31,77.00 178.85,86.63 163.00,98.00
             168.00,96.41 176.78,90.95 182.00,88.26
             182.00,88.26 220.00,68.89 220.00,68.89
             226.39,65.78 234.01,60.75 241.00,60.00
             237.69,65.73 229.38,68.15 224.00,72.00
             224.00,72.00 240.00,65.00 240.00,65.00
             238.08,71.22 234.14,71.71 229.00,75.00
             229.00,75.00 241.00,70.00 241.00,70.00
             241.00,70.00 242.00,71.00 242.00,71.00
             242.00,71.00 242.00,73.00 242.00,73.00
             242.00,73.00 198.00,98.00 198.00,98.00
             198.00,98.00 214.00,91.00 214.00,91.00
             213.94,97.25 204.83,100.44 200.00,103.14
             200.00,103.14 167.00,122.23 167.00,122.23
             160.88,125.61 158.09,128.67 151.00,130.00
             153.17,123.94 156.87,122.63 162.00,119.31
             162.00,119.31 187.00,104.00 187.00,104.00
             187.00,104.00 163.00,115.00 163.00,115.00
             165.77,109.94 169.32,108.43 174.00,105.47
             174.00,105.47 202.00,89.00 202.00,89.00
             202.00,89.00 191.00,93.00 191.00,93.00
             191.00,93.00 192.59,89.53 192.59,89.53
             192.59,89.53 216.00,76.00 216.00,76.00
             203.07,81.17 176.77,94.75 166.00,103.00
             166.00,103.00 181.00,96.00 181.00,96.00
             181.00,96.00 182.00,97.00 182.00,97.00
             178.68,102.09 173.18,104.86 168.00,107.79
             168.00,107.79 146.00,120.68 146.00,120.68
             140.14,124.38 136.03,128.25 129.00,129.00
             132.64,122.80 137.39,121.10 143.00,117.00
             143.00,117.00 134.00,121.00 134.00,121.00
             134.00,121.00 133.00,120.00 133.00,120.00
             133.00,120.00 144.00,109.00 144.00,109.00
             144.00,109.00 138.00,111.00 138.00,111.00
             140.04,104.11 146.17,101.62 152.00,98.13
             152.00,98.13 186.00,79.00 186.00,79.00
             180.58,76.84 187.56,73.69 190.00,72.20
             194.30,69.58 208.44,62.44 213.00,61.00
             213.00,61.00 215.00,55.00 215.00,55.00
             215.00,55.00 211.00,55.00 211.00,55.00 Z
           M 409.00,40.00
           C 409.00,40.00 407.00,40.00 407.00,40.00
             407.00,40.00 406.00,43.00 406.00,43.00
             406.00,43.00 409.00,40.00 409.00,40.00 Z
           M 406.00,43.00
           C 406.00,43.00 405.00,43.00 405.00,43.00
             405.00,43.00 406.00,44.00 406.00,44.00
             406.00,44.00 406.00,43.00 406.00,43.00 Z
           M 405.00,44.00
           C 405.00,44.00 404.00,44.00 404.00,44.00
             404.00,44.00 405.00,45.00 405.00,45.00
             405.00,45.00 405.00,44.00 405.00,44.00 Z
           M 404.00,45.00
           C 404.00,45.00 396.00,52.00 396.00,52.00
             396.00,52.00 404.00,45.00 404.00,45.00 Z
           M 449.00,50.00
           C 449.99,51.09 450.76,51.39 451.02,53.11
             451.33,55.19 449.67,58.16 448.75,60.00
             445.80,65.94 441.88,71.78 437.79,77.00
             425.19,93.07 410.61,108.70 396.00,122.99
             396.00,122.99 378.00,140.00 378.00,140.00
             378.00,140.00 341.00,173.16 341.00,173.16
             341.00,173.16 178.00,309.27 178.00,309.27
             178.00,309.27 120.00,361.01 120.00,361.01
             120.00,361.01 102.80,378.58 102.80,378.58
             98.64,382.99 96.63,386.33 90.78,389.00
             90.51,387.07 90.06,386.08 90.78,384.00
             91.83,378.62 104.50,366.48 108.83,362.44
             108.83,362.44 176.00,302.42 176.00,302.42
             176.00,302.42 341.01,166.00 341.01,166.00
             341.01,166.00 388.12,122.49 388.12,122.49
             403.64,106.69 418.75,90.35 432.55,73.00
             432.55,73.00 449.00,50.00 449.00,50.00 Z
           M 396.00,52.00
           C 396.00,52.00 395.00,52.00 395.00,52.00
             395.00,52.00 396.00,53.00 396.00,53.00
             396.00,53.00 396.00,52.00 396.00,52.00 Z
           M 85.81,346.00
           C 85.66,344.41 85.27,343.77 85.81,342.00
             86.53,337.47 97.33,327.51 101.00,324.09
             101.00,324.09 128.00,300.57 128.00,300.57
             128.00,300.57 159.00,274.40 159.00,274.40
             159.00,274.40 244.00,207.88 244.00,207.88
             279.19,181.04 314.76,154.08 348.00,124.85
             366.39,108.67 385.15,92.54 402.00,74.73
             402.00,74.73 416.66,58.72 416.66,58.72
             419.97,55.02 421.16,52.55 426.00,51.00
             424.91,61.20 415.62,68.05 410.00,76.00
             415.00,71.88 427.40,56.67 431.00,51.00
             431.00,51.00 435.00,52.00 435.00,52.00
             432.11,62.12 423.28,71.28 416.30,78.91
             400.80,95.84 383.75,111.30 366.72,126.66
             302.88,184.23 232.98,234.77 167.00,289.75
             167.00,289.75 107.17,342.41 107.17,342.41
             103.81,345.55 90.72,359.50 87.91,360.83
             86.27,361.32 85.60,361.05 84.00,360.83
             85.89,351.71 101.67,337.79 109.00,331.42
             109.00,331.42 132.09,310.58 132.09,310.58
             132.09,310.58 172.01,277.34 172.01,277.34
             172.01,277.34 248.00,216.82 248.00,216.82
             248.00,216.82 337.00,145.27 337.00,145.27
             337.00,145.27 389.00,98.00 389.00,98.00
             394.81,92.19 405.59,82.16 410.00,76.00
             410.00,76.00 378.00,105.83 378.00,105.83
             378.00,105.83 319.91,155.21 319.91,155.21
             319.91,155.21 174.00,270.42 174.00,270.42
             174.00,270.42 116.17,319.39 116.17,319.39
             116.17,319.39 98.58,335.61 98.58,335.61
             98.58,335.61 85.81,346.00 85.81,346.00 Z
           M 455.00,53.00
           C 455.00,53.00 457.00,53.00 457.00,53.00
             458.95,61.56 449.23,71.66 444.41,78.28
             429.48,98.85 412.97,118.03 395.00,136.00
             395.00,136.00 373.01,157.91 373.01,157.91
             373.01,157.91 342.28,185.12 342.28,185.12
             342.28,185.12 294.00,227.27 294.00,227.27
             294.00,227.27 204.00,304.44 204.00,304.44
             204.00,304.44 152.00,348.20 152.00,348.20
             145.80,353.21 136.72,362.82 129.00,364.00
             129.22,362.08 129.22,360.98 130.14,359.17
             132.58,354.36 148.22,341.60 153.00,337.59
             153.00,337.59 222.96,279.00 222.96,279.00
             222.96,279.00 301.00,213.43 301.00,213.43
             343.97,177.67 401.16,126.83 434.77,83.00
             434.77,83.00 455.00,53.00 455.00,53.00 Z
           M 415.00,55.00
           C 412.81,63.85 404.23,70.77 398.00,77.00
             398.00,77.00 351.00,118.42 351.00,118.42
             290.17,169.81 225.18,215.93 163.00,265.60
             163.00,265.60 112.09,308.54 112.09,308.54
             112.09,308.54 99.43,319.80 99.43,319.80
             96.48,321.62 94.21,320.40 95.23,316.98
             96.54,312.62 109.09,302.37 113.00,299.00
             113.00,299.00 161.04,259.50 161.04,259.50
             161.04,259.50 295.72,156.50 295.72,156.50
             295.72,156.50 344.00,117.39 344.00,117.39
             344.00,117.39 393.00,73.99 393.00,73.99
             393.00,73.99 411.17,56.02 411.17,56.02
             412.66,55.20 413.45,55.26 415.00,55.00 Z
           M 86.00,375.00
           C 87.28,365.83 99.22,355.26 106.00,349.28
             106.00,349.28 120.00,336.17 120.00,336.17
             120.00,336.17 156.00,304.75 156.00,304.75
             156.00,304.75 186.00,279.42 186.00,279.42
             186.00,279.42 294.00,193.09 294.00,193.09
             317.06,174.32 340.37,155.47 362.00,135.03
             381.17,116.92 400.43,98.98 417.72,79.00
             417.72,79.00 435.46,57.99 435.46,57.99
             436.83,57.15 437.56,57.24 439.00,57.00
             437.89,66.80 426.63,78.92 420.02,86.00
             404.30,102.86 388.32,119.04 371.00,134.28
             371.00,134.28 332.00,168.73 332.00,168.73
             332.00,168.73 250.00,236.39 250.00,236.39
             250.00,236.39 168.72,302.66 168.72,302.66
             168.72,302.66 148.00,320.28 148.00,320.28
             148.00,320.28 110.00,355.04 110.00,355.04
             110.00,355.04 90.91,373.83 90.91,373.83
             89.14,374.77 87.90,374.78 86.00,375.00 Z
           M 492.00,61.00
           C 496.97,62.74 496.07,65.58 494.64,70.00
             494.64,70.00 486.59,88.00 486.59,88.00
             473.03,114.39 455.05,138.31 436.08,161.00
             413.88,187.56 385.40,215.42 360.00,239.09
             360.00,239.09 332.04,265.83 332.04,265.83
             332.04,265.83 257.42,333.88 257.42,333.88
             257.42,333.88 201.00,384.27 201.00,384.27
             194.93,389.47 180.69,402.40 173.80,405.00
             173.54,403.18 173.04,402.12 173.80,400.17
             174.25,397.95 177.48,394.69 179.09,392.99
             179.09,392.99 193.09,378.83 193.09,378.83
             193.09,378.83 245.00,331.28 245.00,331.28
             245.00,331.28 260.99,318.00 260.99,318.00
             260.99,318.00 330.00,258.83 330.00,258.83
             359.99,231.76 388.63,203.63 416.09,174.00
             445.02,142.79 477.95,101.51 492.00,61.00 Z
           M 133.84,378.00
           C 133.63,376.21 133.15,374.87 133.84,373.00
             134.90,368.83 146.29,358.88 150.00,355.75
             150.00,355.75 184.00,326.43 184.00,326.43
             184.00,326.43 207.00,307.05 207.00,307.05
             207.00,307.05 249.00,271.57 249.00,271.57
             299.03,228.96 350.03,187.22 395.91,140.04
             411.51,124.00 428.68,105.10 441.71,87.00
             441.71,87.00 457.37,64.59 457.37,64.59
             458.81,63.45 459.41,63.50 461.00,63.00
             460.43,72.79 450.24,84.14 444.55,92.00
             432.06,109.28 403.78,142.21 388.29,156.34
             388.29,156.34 369.00,174.91 369.00,174.91
             369.00,174.91 328.00,211.83 328.00,211.83
             328.00,211.83 309.00,228.17 309.00,228.17
             309.00,228.17 215.00,310.29 215.00,310.29
             215.00,310.29 165.00,353.28 165.00,353.28
             157.48,359.79 142.08,373.84 133.84,378.00 Z
           M 500.00,63.00
           C 501.56,63.55 502.60,63.56 503.39,65.31
             505.26,69.45 499.03,83.79 497.02,88.00
             485.46,112.30 470.73,132.65 454.63,154.00
             428.66,188.42 397.99,218.27 367.00,248.04
             367.00,248.04 253.00,354.84 253.00,354.84
             253.00,354.84 203.43,398.96 203.43,398.96
             203.43,398.96 191.00,409.46 191.00,409.46
             189.63,410.37 187.29,411.88 185.61,410.85
             183.20,409.36 185.29,405.58 186.43,404.00
             186.43,404.00 200.00,390.00 200.00,390.00
             200.00,390.00 241.00,351.17 241.00,351.17
             241.00,351.17 263.00,332.07 263.00,332.07
             263.00,332.07 323.00,280.83 323.00,280.83
             363.05,244.68 402.24,207.09 437.27,166.00
             460.22,139.08 490.75,97.36 500.00,63.00 Z
           M 361.00,66.00
           C 361.00,66.00 360.00,66.00 360.00,66.00
             360.00,66.00 361.00,67.00 361.00,67.00
             361.00,67.00 361.00,66.00 361.00,66.00 Z
           M 360.00,67.00
           C 360.00,67.00 329.00,88.26 329.00,88.26
             329.00,88.26 277.00,125.14 277.00,125.14
             277.00,125.14 251.00,145.00 251.00,145.00
             256.68,142.83 266.61,135.35 272.00,131.55
             272.00,131.55 301.00,111.97 301.00,111.97
             306.35,108.34 315.75,100.59 322.00,100.00
             329.57,89.52 349.92,79.21 360.00,67.00 Z
           M 194.00,421.00
           C 194.35,410.92 204.35,403.65 211.00,397.00
             211.00,397.00 263.00,348.42 263.00,348.42
             263.00,348.42 296.04,319.75 296.04,319.75
             296.04,319.75 327.83,292.61 327.83,292.61
             327.83,292.61 357.00,265.09 357.00,265.09
             390.95,233.46 423.42,200.30 452.40,164.00
             469.89,142.09 486.22,118.41 498.22,93.00
             498.22,93.00 505.35,75.02 505.35,75.02
             505.87,73.54 507.08,69.64 509.45,71.17
             511.48,72.47 510.46,76.16 509.98,78.00
             507.99,85.77 505.96,89.78 502.91,97.00
             493.01,120.47 471.34,149.77 455.58,170.00
             426.65,207.13 392.75,239.43 359.00,272.04
             359.00,272.04 268.00,358.17 268.00,358.17
             268.00,358.17 218.00,403.42 218.00,403.42
             211.62,408.95 202.10,419.00 194.00,421.00 Z
           M 200.00,72.00
           C 200.00,72.00 196.00,74.00 196.00,74.00
             196.00,74.00 200.00,72.00 200.00,72.00 Z
           M 224.00,72.00
           C 219.90,72.78 219.01,73.04 216.00,76.00
             216.00,76.00 224.00,72.00 224.00,72.00 Z
           M 317.00,88.00
           C 317.50,86.33 317.51,85.64 318.59,84.09
             321.47,80.01 333.14,72.32 338.00,71.00
             337.67,72.99 337.72,73.94 336.40,75.68
             333.64,79.31 321.53,86.89 317.00,88.00 Z
           M 515.00,74.00
           C 516.58,74.55 517.57,74.55 518.40,76.31
             520.33,80.42 514.35,94.59 512.55,99.00
             504.51,118.68 483.86,151.24 470.60,168.00
             451.77,191.80 433.02,215.08 411.96,237.00
             411.96,237.00 371.92,276.42 371.92,276.42
             371.92,276.42 319.00,327.91 319.00,327.91
             319.00,327.91 272.00,372.00 272.00,372.00
             272.00,372.00 248.00,394.17 248.00,394.17
             248.00,394.17 220.00,419.57 220.00,419.57
             220.00,419.57 207.00,430.32 207.00,430.32
             205.58,431.35 203.21,433.17 201.31,432.55
             198.21,431.54 200.11,427.67 201.31,426.00
             201.31,426.00 215.01,411.00 215.01,411.00
             234.49,391.05 254.82,371.72 276.00,353.58
             335.12,302.97 403.99,242.05 452.34,181.42
             476.18,151.53 499.61,119.64 511.75,83.00
             511.75,83.00 515.00,74.00 515.00,74.00 Z
           M 227.00,76.00
           C 221.83,77.47 215.82,80.19 212.00,84.00
             217.17,82.53 223.18,79.81 227.00,76.00 Z
           M 479.00,75.00
           C 479.00,75.00 481.00,75.00 481.00,75.00
             482.71,83.81 474.51,93.65 470.14,101.00
             458.03,121.37 436.06,148.44 419.92,166.01
             419.92,166.01 387.00,201.00 387.00,201.00
             356.65,231.35 324.38,259.98 292.00,288.13
             292.00,288.13 237.00,336.27 237.00,336.27
             237.00,336.27 187.96,380.17 187.96,380.17
             182.72,385.10 168.38,399.46 162.81,402.00
             162.41,399.81 161.84,398.31 162.81,396.00
             163.93,392.10 176.38,380.48 180.00,377.28
             180.00,377.28 245.00,319.92 245.00,319.92
             245.00,319.92 279.00,290.28 279.00,290.28
             279.00,290.28 340.00,236.09 340.00,236.09
             374.83,203.64 409.84,171.15 439.50,133.72
             456.76,111.91 464.92,98.38 479.00,75.00 Z
           M 190.00,77.00
           C 190.00,77.00 186.00,79.00 186.00,79.00
             186.00,79.00 190.00,77.00 190.00,77.00 Z
           M 459.00,76.00
           C 463.80,77.70 462.72,80.14 460.45,84.00
             460.45,84.00 450.22,99.00 450.22,99.00
             433.62,121.32 415.67,142.33 396.00,162.00
             396.00,162.00 372.01,185.91 372.01,185.91
             372.01,185.91 336.42,217.88 336.42,217.88
             336.42,217.88 231.42,311.13 231.42,311.13
             231.42,311.13 173.00,362.27 173.00,362.27
             164.84,369.25 149.78,383.48 141.00,388.00
             140.34,386.17 139.69,385.16 140.23,383.09
             141.16,379.46 153.67,368.64 157.00,365.72
             157.00,365.72 219.91,311.45 219.91,311.45
             265.28,272.48 311.25,233.85 355.00,193.09
             391.80,158.80 432.66,118.98 459.00,76.00 Z
           M 524.00,76.00
           C 525.64,76.92 526.62,77.13 527.36,79.14
             528.19,81.34 527.18,84.77 526.63,87.00
             525.10,93.15 523.06,99.17 520.57,105.00
             509.40,131.19 491.85,158.32 474.67,181.00
             437.02,230.70 397.50,268.97 353.00,312.04
             353.00,312.04 307.00,356.96 307.00,356.96
             307.00,356.96 292.29,370.41 292.29,370.41
             292.29,370.41 239.00,420.08 239.00,420.08
             232.12,426.41 217.18,441.24 208.82,444.00
             208.52,442.08 208.03,441.06 208.82,439.00
             209.84,434.92 223.66,420.88 227.44,416.83
             246.75,396.13 277.18,368.88 299.00,350.13
             331.58,322.12 363.76,293.57 393.99,263.00
             393.99,263.00 424.09,231.00 424.09,231.00
             450.35,202.80 481.28,165.59 500.14,132.00
             507.38,119.11 513.75,105.85 518.94,92.00
             518.94,92.00 524.00,76.00 524.00,76.00 Z
           M 533.00,76.00
           C 534.23,76.43 535.06,76.39 535.98,77.59
             537.31,79.33 536.98,82.94 536.71,85.00
             535.80,92.07 533.90,96.45 531.67,103.00
             523.38,127.30 506.37,154.85 491.81,176.00
             459.40,223.06 426.03,256.97 386.00,297.00
             386.00,297.00 283.00,397.96 283.00,397.96
             283.00,397.96 249.17,429.39 249.17,429.39
             249.17,429.39 230.01,446.92 230.01,446.92
             230.01,446.92 217.00,458.04 217.00,458.04
             215.56,458.99 213.30,460.47 211.62,459.18
             209.27,457.37 211.50,453.73 212.72,452.00
             212.72,452.00 226.83,436.09 226.83,436.09
             226.83,436.09 268.00,395.09 268.00,395.09
             268.00,395.09 294.00,371.98 294.00,371.98
             294.00,371.98 356.17,316.68 356.17,316.68
             395.53,280.21 448.63,225.39 479.56,182.00
             502.85,149.32 524.94,116.08 533.00,76.00 Z
           M 579.00,81.00
           C 580.73,81.57 581.70,81.60 582.77,83.31
             584.86,86.39 583.22,99.87 582.77,104.00
             579.94,126.50 571.25,150.59 561.57,171.00
             559.31,175.77 555.57,183.83 552.70,187.98
             551.52,189.70 549.52,192.38 547.19,192.39
             544.06,192.41 544.82,188.82 545.57,187.00
             545.57,187.00 555.31,168.00 555.31,168.00
             555.31,168.00 569.90,134.00 569.90,134.00
             569.90,134.00 572.44,124.00 572.44,124.00
             572.44,124.00 575.38,114.00 575.38,114.00
             575.38,114.00 577.28,99.00 577.28,99.00
             577.28,99.00 579.00,81.00 579.00,81.00 Z
           M 278.00,93.00
           C 278.00,93.00 299.00,83.00 299.00,83.00
             296.77,90.51 288.19,93.87 282.00,97.82
             282.00,97.82 238.00,125.82 238.00,125.82
             238.00,125.82 178.00,165.12 178.00,165.12
             178.00,165.12 134.28,194.50 134.28,194.50
             134.28,194.50 101.00,219.75 101.00,219.75
             101.00,219.75 72.00,244.00 72.00,244.00
             72.00,244.00 70.00,242.00 70.00,242.00
             70.00,242.00 70.00,241.00 70.00,241.00
             83.85,225.04 101.02,212.70 118.00,200.27
             118.00,200.27 198.00,144.72 198.00,144.72
             198.00,144.72 224.00,127.00 224.00,127.00
             224.00,127.00 187.00,149.95 187.00,149.95
             162.58,165.62 138.23,181.45 115.00,198.87
             115.00,198.87 87.00,221.27 87.00,221.27
             82.23,225.34 77.02,231.23 71.00,233.00
             72.59,225.18 79.13,220.04 85.00,215.08
             85.00,215.08 120.00,188.72 120.00,188.72
             149.52,167.42 180.26,147.95 211.00,128.47
             225.80,119.10 268.37,91.87 282.00,86.00
             281.31,90.07 280.93,90.14 278.00,93.00 Z
           M 468.00,83.00
           C 467.49,92.22 460.78,99.76 455.58,107.00
             442.27,125.55 431.27,138.08 416.16,155.00
             416.16,155.00 395.09,176.99 395.09,176.99
             395.09,176.99 378.00,194.91 378.00,194.91
             378.00,194.91 348.17,221.57 348.17,221.57
             348.17,221.57 232.00,326.00 232.00,326.00
             232.00,326.00 173.04,377.75 173.04,377.75
             173.04,377.75 159.00,389.75 159.00,389.75
             157.55,390.79 154.52,393.06 152.64,391.85
             150.60,390.52 152.45,387.36 153.43,386.01
             155.24,383.54 163.65,376.53 166.58,373.88
             166.58,373.88 225.00,322.72 225.00,322.72
             276.03,277.99 328.22,234.16 377.00,186.96
             377.00,186.96 406.75,156.58 406.75,156.58
             406.75,156.58 415.17,147.00 415.17,147.00
             427.21,133.67 439.01,120.28 449.59,105.72
             449.59,105.72 464.33,84.59 464.33,84.59
             465.77,83.46 466.40,83.49 468.00,83.00 Z
           M 588.00,83.00
           C 595.21,85.50 592.99,96.01 592.28,102.00
             592.28,102.00 591.72,111.00 591.72,111.00
             590.05,124.98 586.49,138.68 581.92,152.00
             581.92,152.00 576.47,165.94 576.47,165.94
             575.57,167.37 573.57,170.04 571.56,168.83
             569.76,167.74 570.37,164.64 570.76,163.00
             570.76,163.00 576.14,149.00 576.14,149.00
             581.19,132.53 584.60,123.66 586.72,106.00
             586.72,106.00 588.00,83.00 588.00,83.00 Z
           M 210.00,85.00
           C 205.90,85.78 205.01,86.04 202.00,89.00
             202.00,89.00 210.00,85.00 210.00,85.00 Z
           M 541.00,85.00
           C 542.71,85.96 543.55,86.10 544.40,88.14
             546.33,92.73 540.28,110.21 538.09,115.00
             538.09,115.00 530.03,134.00 530.03,134.00
             520.36,153.35 505.82,176.70 492.87,194.00
             492.87,194.00 454.71,243.00 454.71,243.00
             429.06,272.65 400.71,300.29 373.00,328.00
             373.00,328.00 300.04,399.83 300.04,399.83
             300.04,399.83 239.00,457.28 239.00,457.28
             239.00,457.28 222.00,472.27 222.00,472.27
             216.45,476.13 214.37,473.07 215.40,469.98
             216.10,467.87 223.01,460.28 224.92,458.00
             224.92,458.00 253.58,427.75 253.58,427.75
             253.58,427.75 358.00,332.83 358.00,332.83
             358.00,332.83 372.00,319.04 372.00,319.04
             372.00,319.04 379.91,311.91 379.91,311.91
             379.91,311.91 387.04,304.01 387.04,304.01
             387.04,304.01 398.08,293.57 398.08,293.57
             398.08,293.57 438.17,251.00 438.17,251.00
             464.49,221.86 496.12,183.34 514.97,149.00
             521.83,136.52 528.53,123.43 533.31,110.00
             533.31,110.00 537.71,97.00 537.71,97.00
             539.14,91.68 538.60,90.74 541.00,85.00 Z
           M 550.58,88.17
           C 555.23,87.61 554.78,91.58 554.19,95.00
             553.13,101.11 550.01,110.96 548.00,117.00
             539.62,142.12 521.28,174.21 506.12,196.00
             470.26,247.51 439.99,277.61 397.04,322.00
             397.04,322.00 327.44,391.80 327.44,391.80
             327.44,391.80 297.28,421.39 297.28,421.39
             297.28,421.39 244.17,471.56 244.17,471.56
             244.17,471.56 230.00,484.15 230.00,484.15
             228.36,485.58 225.41,488.63 223.15,488.66
             219.10,488.73 220.96,483.85 222.32,482.00
             222.32,482.00 236.75,467.08 236.75,467.08
             236.75,467.08 276.00,428.04 276.00,428.04
             276.00,428.04 285.00,419.96 285.00,419.96
             285.00,419.96 299.00,406.17 299.00,406.17
             299.00,406.17 374.00,335.04 374.00,335.04
             417.86,292.59 463.72,245.02 498.80,195.00
             511.54,176.83 529.23,148.37 537.55,128.00
             541.13,119.24 544.64,110.15 547.08,101.00
             548.19,96.83 547.82,91.57 550.58,88.17 Z
           M 213.00,117.00
           C 213.00,117.00 249.00,95.98 249.00,95.98
             255.43,92.44 260.56,88.42 268.00,88.00
             266.03,94.53 258.57,97.60 253.00,100.85
             253.00,100.85 216.00,123.30 216.00,123.30
             179.52,145.62 143.45,168.36 109.00,193.73
             109.00,193.73 84.00,214.09 84.00,214.09
             78.94,218.80 69.83,228.24 64.00,231.00
             64.83,223.81 69.00,220.57 74.04,215.83
             81.16,209.13 87.24,204.38 95.00,198.53
             95.00,198.53 157.00,154.02 157.00,154.02
             157.00,154.02 191.00,131.00 191.00,131.00
             191.00,131.00 145.00,159.49 145.00,159.49
             121.03,175.47 96.89,192.06 76.00,212.04
             64.36,223.17 57.66,230.31 47.79,243.00
             44.06,247.80 38.91,257.41 34.00,260.00
             34.00,260.00 35.88,253.00 35.88,253.00
             36.44,249.97 35.74,248.30 37.01,245.00
             38.79,240.37 46.34,230.23 49.53,226.00
             60.61,211.31 74.90,197.43 89.00,185.59
             95.70,179.97 107.71,168.74 116.00,167.00
             114.13,173.32 108.00,176.85 103.00,180.79
             91.90,189.53 86.23,193.77 76.00,204.00
             76.00,204.00 93.00,190.42 93.00,190.42
             93.00,190.42 108.00,179.15 108.00,179.15
             108.00,179.15 175.00,133.47 175.00,133.47
             175.00,133.47 199.00,118.58 199.00,118.58
             204.22,115.59 207.81,112.59 214.00,114.00
             214.00,114.00 213.00,117.00 213.00,117.00 Z
           M 560.00,88.00
           C 561.23,88.43 562.05,88.38 562.98,89.59
             566.08,93.66 562.17,108.37 560.67,113.00
             552.66,137.67 543.08,158.91 529.32,181.00
             516.01,202.35 501.86,223.18 486.34,243.00
             452.74,285.89 396.04,342.66 356.41,381.92
             356.41,381.92 310.00,425.93 310.00,425.93
             310.00,425.93 299.00,435.36 299.00,435.36
             297.59,436.43 295.24,438.36 293.33,437.67
             290.86,436.77 291.81,433.63 292.76,432.00
             294.52,428.97 302.09,421.95 305.00,419.42
             305.00,419.42 321.17,404.25 321.17,404.25
             321.17,404.25 344.01,382.96 344.01,382.96
             344.01,382.96 362.00,365.17 362.00,365.17
             396.13,334.29 447.26,280.05 476.12,244.00
             503.72,209.51 530.83,173.27 547.55,132.00
             551.02,123.43 554.22,114.00 556.35,105.00
             556.35,105.00 560.00,88.00 560.00,88.00 Z
           M 597.00,88.00
           C 598.54,88.27 599.73,88.18 600.83,89.57
             602.62,91.87 602.02,103.59 602.00,107.00
             601.93,121.05 598.90,130.72 596.20,144.00
             595.53,147.26 592.87,158.31 589.64,159.51
             587.35,160.37 586.38,157.76 586.33,155.98
             586.26,153.59 588.61,147.68 589.41,145.00
             595.05,126.14 597.04,107.58 597.00,88.00 Z
           M 71.00,253.00
           C 74.56,243.37 83.17,236.83 91.00,230.66
             91.00,230.66 125.00,204.53 125.00,204.53
             161.54,177.49 199.87,152.54 238.00,127.82
             238.00,127.82 273.00,105.00 273.00,105.00
             279.42,100.81 292.22,92.49 299.00,90.00
             299.00,90.00 300.00,91.00 300.00,91.00
             297.76,96.91 289.21,100.84 284.00,104.44
             284.00,104.44 240.00,133.22 240.00,133.22
             240.00,133.22 204.00,157.16 204.00,157.16
             204.00,157.16 123.00,213.15 123.00,213.15
             123.00,213.15 88.00,241.20 88.00,241.20
             83.12,245.18 77.27,251.51 72.00,254.00
             72.00,254.00 71.00,253.00 71.00,253.00 Z
           M 278.00,93.00
           C 278.00,93.00 277.00,93.00 277.00,93.00
             277.00,93.00 278.00,94.00 278.00,94.00
             278.00,94.00 278.00,93.00 278.00,93.00 Z
           M 529.00,197.00
           C 529.24,189.61 531.84,187.26 535.42,181.00
             535.42,181.00 547.34,159.00 547.34,159.00
             547.34,159.00 558.69,132.00 558.69,132.00
             562.80,120.39 564.67,114.11 567.00,102.00
             567.45,99.64 567.73,92.63 570.92,92.61
             574.01,92.58 573.77,97.00 573.56,99.00
             573.56,99.00 568.74,121.00 568.74,121.00
             567.65,126.66 566.81,127.16 565.09,132.00
             559.25,148.41 552.31,163.57 544.17,179.00
             540.63,185.69 537.29,195.65 529.00,197.00 Z
           M 606.81,93.00
           C 614.74,97.36 611.37,110.66 611.04,118.00
             610.54,129.12 609.58,131.57 607.36,142.00
             607.36,142.00 605.52,152.00 605.52,152.00
             601.84,166.34 595.87,180.49 589.86,194.00
             587.08,200.24 582.95,209.36 579.38,215.00
             578.23,216.81 575.33,221.39 572.75,219.83
             570.07,218.39 571.99,213.84 572.75,212.00
             572.75,212.00 583.26,192.00 583.26,192.00
             590.47,177.07 595.78,162.97 600.15,147.00
             600.15,147.00 602.86,137.00 602.86,137.00
             602.86,137.00 606.81,106.00 606.81,106.00
             606.92,100.16 605.05,99.90 606.81,93.00 Z
           M 275.00,95.00
           C 275.00,95.00 270.00,98.00 270.00,98.00
             270.00,98.00 275.00,95.00 275.00,95.00 Z
           M 161.00,99.00
           C 161.00,99.00 160.00,99.00 160.00,99.00
             160.00,99.00 161.00,100.00 161.00,100.00
             161.00,100.00 161.00,99.00 161.00,99.00 Z
           M 196.00,99.00
           C 196.00,99.00 187.00,104.00 187.00,104.00
             191.31,102.82 192.89,102.30 196.00,99.00 Z
           M 268.00,99.00
           C 268.00,99.00 267.00,99.00 267.00,99.00
             267.00,99.00 268.00,100.00 268.00,100.00
             268.00,100.00 268.00,99.00 268.00,99.00 Z
           M 615.00,99.00
           C 621.00,98.22 620.93,102.09 621.00,107.00
             621.26,126.11 619.53,140.39 615.12,159.00
             615.12,159.00 611.29,171.96 611.29,171.96
             610.70,173.35 609.74,175.63 607.92,175.66
             605.62,175.71 605.16,172.70 605.26,170.99
             605.26,170.99 608.79,158.00 608.79,158.00
             608.79,158.00 612.18,145.00 612.18,145.00
             614.69,133.39 617.06,110.52 615.00,99.00 Z
           M 160.00,100.00
           C 160.00,100.00 153.00,104.00 153.00,104.00
             153.00,104.00 160.00,100.00 160.00,100.00 Z
           M 267.00,100.00
           C 267.00,100.00 262.00,103.00 262.00,103.00
             262.00,103.00 267.00,100.00 267.00,100.00 Z
           M 148.00,138.00
           C 151.88,131.38 158.59,128.90 165.00,125.14
             165.00,125.14 192.00,108.86 192.00,108.86
             196.83,106.15 201.51,103.04 207.00,102.00
             205.03,108.55 199.51,110.01 194.00,113.42
             194.00,113.42 165.00,130.82 165.00,130.82
             160.16,133.88 153.81,138.55 148.00,138.00 Z
           M 299.00,103.00
           C 299.00,103.00 293.00,107.00 293.00,107.00
             293.00,107.00 299.00,103.00 299.00,103.00 Z
           M 153.00,104.00
           C 153.00,104.00 146.00,108.00 146.00,108.00
             146.00,108.00 153.00,104.00 153.00,104.00 Z
           M 164.00,104.00
           C 164.00,104.00 163.00,104.00 163.00,104.00
             163.00,104.00 164.00,105.00 164.00,105.00
             164.00,105.00 164.00,104.00 164.00,104.00 Z
           M 260.00,104.00
           C 260.00,104.00 259.00,104.00 259.00,104.00
             259.00,104.00 260.00,105.00 260.00,105.00
             260.00,105.00 260.00,104.00 260.00,104.00 Z
           M 163.00,105.00
           C 163.00,105.00 158.00,108.00 158.00,108.00
             158.00,108.00 163.00,105.00 163.00,105.00 Z
           M 259.00,105.00
           C 259.00,105.00 254.00,108.00 254.00,108.00
             254.00,108.00 259.00,105.00 259.00,105.00 Z
           M 254.00,108.00
           C 254.00,108.00 253.00,108.00 253.00,108.00
             253.00,108.00 254.00,109.00 254.00,109.00
             254.00,109.00 254.00,108.00 254.00,108.00 Z
           M 635.00,107.00
           C 636.73,107.59 637.58,107.58 638.69,109.31
             640.67,112.40 640.00,125.72 640.00,130.00
             638.27,129.43 637.30,129.40 636.17,127.69
             634.27,124.81 635.00,111.12 635.00,107.00 Z
           M 156.00,109.00
           C 156.00,109.00 155.00,109.00 155.00,109.00
             155.00,109.00 156.00,110.00 156.00,110.00
             156.00,110.00 156.00,109.00 156.00,109.00 Z
           M 252.00,109.00
           C 252.00,109.00 251.00,109.00 251.00,109.00
             251.00,109.00 252.00,110.00 252.00,110.00
             252.00,110.00 252.00,109.00 252.00,109.00 Z
           M 151.00,112.00
           C 151.00,112.00 150.00,112.00 150.00,112.00
             150.00,112.00 151.00,113.00 151.00,113.00
             151.00,113.00 151.00,112.00 151.00,112.00 Z
           M 149.00,113.00
           C 149.00,113.00 148.00,113.00 148.00,113.00
             148.00,113.00 149.00,114.00 149.00,114.00
             149.00,114.00 149.00,113.00 149.00,113.00 Z
           M 284.00,113.00
           C 284.00,113.00 280.00,116.00 280.00,116.00
             280.00,116.00 284.00,113.00 284.00,113.00 Z
           M 241.00,116.00
           C 241.00,116.00 240.00,116.00 240.00,116.00
             240.00,116.00 241.00,117.00 241.00,117.00
             241.00,117.00 241.00,116.00 241.00,116.00 Z
           M 213.00,117.00
           C 213.00,117.00 212.00,117.00 212.00,117.00
             212.00,117.00 213.00,118.00 213.00,118.00
             213.00,118.00 213.00,117.00 213.00,117.00 Z
           M 240.00,117.00
           C 240.00,117.00 232.00,122.00 232.00,122.00
             232.00,122.00 240.00,117.00 240.00,117.00 Z
           M 278.00,117.00
           C 278.00,117.00 277.00,117.00 277.00,117.00
             277.00,117.00 278.00,118.00 278.00,118.00
             278.00,118.00 278.00,117.00 278.00,117.00 Z
           M 109.00,128.00
           C 105.84,122.44 113.60,118.71 118.00,117.00
             116.45,122.17 114.41,123.19 110.00,126.00
             110.30,126.49 111.08,127.00 111.18,128.30
             111.50,132.57 102.44,137.83 99.00,139.00
             100.74,133.10 104.00,131.17 109.00,128.00 Z
           M 277.00,118.00
           C 277.00,118.00 272.00,121.00 272.00,121.00
             272.00,121.00 277.00,118.00 277.00,118.00 Z
           M 207.00,121.00
           C 207.00,121.00 206.00,121.00 206.00,121.00
             206.00,121.00 207.00,122.00 207.00,122.00
             207.00,122.00 207.00,121.00 207.00,121.00 Z
           M 272.00,121.00
           C 272.00,121.00 271.00,121.00 271.00,121.00
             271.00,121.00 272.00,122.00 272.00,122.00
             272.00,122.00 272.00,121.00 272.00,121.00 Z
           M 205.00,122.00
           C 205.00,122.00 204.00,122.00 204.00,122.00
             204.00,122.00 205.00,123.00 205.00,123.00
             205.00,123.00 205.00,122.00 205.00,122.00 Z
           M 232.00,122.00
           C 232.00,122.00 224.00,127.00 224.00,127.00
             224.00,127.00 232.00,122.00 232.00,122.00 Z
           M 271.00,122.00
           C 271.00,122.00 265.00,126.00 265.00,126.00
             265.00,126.00 271.00,122.00 271.00,122.00 Z
           M 121.00,142.00
           C 121.72,139.94 121.86,139.08 123.42,137.37
             127.32,133.10 143.35,123.15 149.00,122.00
             147.04,128.36 140.32,131.15 135.00,134.53
             130.02,137.69 126.92,140.76 121.00,142.00 Z
           M 204.00,123.00
           C 204.00,123.00 199.00,126.00 199.00,126.00
             199.00,126.00 204.00,123.00 204.00,123.00 Z
           M 196.00,128.00
           C 196.00,128.00 191.00,131.00 191.00,131.00
             191.00,131.00 196.00,128.00 196.00,128.00 Z
           M 262.00,128.00
           C 262.00,128.00 257.00,131.00 257.00,131.00
             257.00,131.00 262.00,128.00 262.00,128.00 Z
           M 257.00,131.00
           C 257.00,131.00 256.00,131.00 256.00,131.00
             256.00,131.00 257.00,132.00 257.00,132.00
             257.00,132.00 257.00,131.00 257.00,131.00 Z
           M 256.00,132.00
           C 256.00,132.00 250.00,136.00 250.00,136.00
             250.00,136.00 256.00,132.00 256.00,132.00 Z
           M 250.00,136.00
           C 250.00,136.00 249.00,136.00 249.00,136.00
             249.00,136.00 250.00,137.00 250.00,137.00
             250.00,137.00 250.00,136.00 250.00,136.00 Z
           M 91.00,150.00
           C 93.98,145.14 96.41,142.59 102.00,141.00
             99.96,146.09 96.82,150.00 91.00,150.00 Z
           M 251.00,145.00
           C 251.00,145.00 244.00,150.00 244.00,150.00
             244.00,150.00 251.00,145.00 251.00,145.00 Z
           M 244.00,150.00
           C 244.00,150.00 238.00,154.00 238.00,154.00
             238.00,154.00 244.00,150.00 244.00,150.00 Z
           M 238.00,154.00
           C 238.00,154.00 237.00,154.00 237.00,154.00
             237.00,154.00 238.00,155.00 238.00,155.00
             238.00,155.00 238.00,154.00 238.00,154.00 Z
           M 79.00,170.00
           C 80.57,162.63 87.34,157.00 94.00,154.00
             92.63,160.28 84.66,167.32 79.00,170.00 Z
           M 109.00,154.00
           C 111.74,159.57 103.77,163.51 99.99,166.50
             99.99,166.50 82.00,182.01 82.00,182.01
             76.61,187.27 71.62,193.26 65.00,197.00
             66.10,190.05 71.83,185.03 76.83,180.46
             76.83,180.46 109.00,154.00 109.00,154.00 Z
           M 237.00,155.00
           C 237.00,155.00 231.00,159.00 231.00,159.00
             231.00,159.00 237.00,155.00 237.00,155.00 Z
           M 231.00,159.00
           C 231.00,159.00 230.00,159.00 230.00,159.00
             230.00,159.00 231.00,160.00 231.00,160.00
             231.00,160.00 231.00,159.00 231.00,159.00 Z
           M 230.00,160.00
           C 230.00,160.00 224.00,164.00 224.00,164.00
             224.00,164.00 230.00,160.00 230.00,160.00 Z
           M 59.00,211.00
           C 60.02,203.74 65.25,199.54 70.28,194.58
             78.41,186.57 99.43,167.93 109.00,163.00
             109.24,169.41 102.58,173.13 98.00,176.80
             98.00,176.80 72.92,198.29 72.92,198.29
             68.37,202.59 64.70,208.20 59.00,211.00 Z
           M 224.00,164.00
           C 224.00,164.00 223.00,164.00 223.00,164.00
             223.00,164.00 224.00,165.00 224.00,165.00
             224.00,165.00 224.00,164.00 224.00,164.00 Z
           M 223.00,165.00
           C 223.00,165.00 217.00,169.00 217.00,169.00
             217.00,169.00 223.00,165.00 223.00,165.00 Z
           M 217.00,169.00
           C 217.00,169.00 216.00,169.00 216.00,169.00
             216.00,169.00 217.00,170.00 217.00,170.00
             217.00,170.00 217.00,169.00 217.00,169.00 Z
           M 216.00,170.00
           C 216.00,170.00 210.00,174.00 210.00,174.00
             210.00,174.00 216.00,170.00 216.00,170.00 Z
           M 210.00,174.00
           C 210.00,174.00 206.00,177.00 206.00,177.00
             206.00,177.00 210.00,174.00 210.00,174.00 Z
           M 206.00,177.00
           C 206.00,177.00 200.00,181.00 200.00,181.00
             200.00,181.00 206.00,177.00 206.00,177.00 Z
           M 200.00,181.00
           C 200.00,181.00 199.00,181.00 199.00,181.00
             199.00,181.00 200.00,182.00 200.00,182.00
             200.00,182.00 200.00,181.00 200.00,181.00 Z
           M 199.00,182.00
           C 199.00,182.00 192.00,187.00 192.00,187.00
             192.00,187.00 199.00,182.00 199.00,182.00 Z
           M 192.00,187.00
           C 192.00,187.00 186.00,191.00 186.00,191.00
             186.00,191.00 192.00,187.00 192.00,187.00 Z
           M 186.00,191.00
           C 186.00,191.00 185.00,191.00 185.00,191.00
             185.00,191.00 186.00,192.00 186.00,192.00
             186.00,192.00 186.00,191.00 186.00,191.00 Z
           M 185.00,192.00
           C 185.00,192.00 178.00,197.00 178.00,197.00
             178.00,197.00 185.00,192.00 185.00,192.00 Z
           M 595.37,198.17
           C 601.89,197.46 598.59,203.78 597.15,207.00
             593.36,215.49 588.82,224.05 583.98,232.00
             582.95,233.69 577.70,241.01 576.04,235.70
             575.08,232.64 578.27,227.61 579.70,225.00
             579.70,225.00 588.69,209.00 588.69,209.00
             590.74,205.21 592.10,201.02 595.37,198.17 Z
           M 76.00,204.00
           C 71.28,206.23 68.23,209.28 66.00,214.00
             66.00,214.00 76.00,204.00 76.00,204.00 Z
           M 66.00,214.00
           C 66.00,214.00 65.00,214.00 65.00,214.00
             65.00,214.00 66.00,215.00 66.00,215.00
             66.00,215.00 66.00,214.00 66.00,214.00 Z
           M 65.00,215.00
           C 65.00,215.00 63.00,215.00 63.00,215.00
             63.00,215.00 62.00,218.00 62.00,218.00
             62.00,218.00 65.00,215.00 65.00,215.00 Z
           M 62.00,218.00
           C 62.00,218.00 61.00,218.00 61.00,218.00
             61.00,218.00 62.00,219.00 62.00,219.00
             62.00,219.00 62.00,218.00 62.00,218.00 Z
           M 61.00,219.00
           C 61.00,219.00 60.00,219.00 60.00,219.00
             60.00,219.00 61.00,220.00 61.00,220.00
             61.00,220.00 61.00,219.00 61.00,219.00 Z
           M 60.00,220.00
           C 54.08,224.61 45.72,234.99 43.00,242.00
             47.86,237.97 57.81,225.90 60.00,220.00 Z
           M 593.05,230.34
           C 596.13,230.51 597.02,231.71 596.30,235.00
             595.63,238.05 588.45,250.58 585.81,251.92
             583.14,253.28 580.40,251.60 582.09,247.00
             583.75,242.46 589.15,232.90 593.05,230.34 Z
           M 604.00,232.00
           C 606.76,232.88 608.69,233.53 608.22,237.02
             607.95,239.03 605.22,244.06 604.14,246.00
             602.03,249.81 594.05,264.29 591.41,266.38
             588.90,268.38 586.27,267.20 586.42,263.94
             586.54,261.22 589.75,256.42 591.20,254.00
             591.20,254.00 596.57,245.00 596.57,245.00
             596.57,245.00 604.00,232.00 604.00,232.00 Z
           M 498.96,237.17
           C 508.04,236.25 497.98,247.76 496.21,250.00
             496.21,250.00 467.41,285.00 467.41,285.00
             467.41,285.00 444.39,310.28 444.39,310.28
             444.39,310.28 393.00,364.00 393.00,364.00
             393.00,364.00 348.00,408.28 348.00,408.28
             348.00,408.28 337.04,418.83 337.04,418.83
             337.04,418.83 312.00,442.09 312.00,442.09
             309.71,444.24 301.83,453.62 298.60,451.83
             293.32,448.91 303.01,440.00 304.99,438.17
             304.99,438.17 344.00,401.00 344.00,401.00
             344.00,401.00 364.00,381.96 364.00,381.96
             364.00,381.96 401.00,345.00 401.00,345.00
             401.00,345.00 447.13,296.96 447.13,296.96
             447.13,296.96 481.75,257.00 481.75,257.00
             486.51,251.24 493.08,240.98 498.96,237.17 Z
           M 422.00,348.00
           C 422.17,345.61 422.17,344.23 423.31,342.00
             425.15,338.42 438.38,324.76 441.91,321.00
             441.91,321.00 492.25,264.00 492.25,264.00
             492.25,264.00 506.55,245.96 506.55,245.96
             507.92,244.10 511.26,238.98 513.19,238.17
             515.74,237.09 518.23,239.22 516.81,243.00
             515.83,245.59 507.41,256.23 505.20,259.00
             486.65,282.28 467.49,305.35 447.03,327.00
             442.56,331.74 431.30,345.34 426.00,347.75
             424.25,348.22 423.70,347.99 422.00,347.75
             422.71,353.37 420.55,354.41 417.20,358.17
             417.20,358.17 402.00,373.99 402.00,373.99
             402.00,373.99 333.27,441.00 333.27,441.00
             333.27,441.00 312.75,460.91 312.75,460.91
             311.02,462.57 307.25,466.50 304.56,464.72
             301.31,462.55 305.47,457.74 307.06,456.00
             307.06,456.00 328.71,434.75 328.71,434.75
             328.71,434.75 373.00,391.01 373.00,391.01
             373.00,391.01 393.00,372.00 393.00,372.00
             399.73,365.32 412.93,349.46 422.00,348.00 Z
           M 43.00,242.00
           C 40.97,244.06 40.48,244.09 41.00,247.00
             41.00,247.00 43.00,242.00 43.00,242.00 Z
           M 67.00,243.00
           C 69.78,248.39 65.60,251.80 61.00,254.00
             61.48,248.03 62.92,247.23 67.00,243.00 Z
           M 40.00,247.00
           C 40.00,247.00 39.00,247.00 39.00,247.00
             39.00,247.00 40.00,248.00 40.00,248.00
             40.00,248.00 40.00,247.00 40.00,247.00 Z
           M 75.00,274.00
           C 74.83,268.37 77.18,266.86 81.00,263.00
             86.38,257.58 95.39,248.21 103.00,247.00
             101.91,253.72 97.87,256.05 93.00,260.28
             87.60,264.98 81.65,271.40 75.00,274.00 Z
           M 523.00,251.00
           C 522.46,260.17 514.74,267.01 509.47,274.00
             509.47,274.00 465.58,326.00 465.58,326.00
             465.58,326.00 450.25,342.37 450.25,342.37
             448.72,343.77 445.00,347.13 443.08,344.38
             441.52,342.17 444.17,338.69 445.48,337.00
             445.48,337.00 458.83,322.00 458.83,322.00
             458.83,322.00 503.88,270.00 503.88,270.00
             506.50,266.73 515.95,253.44 518.32,252.02
             519.91,251.07 521.26,251.14 523.00,251.00 Z
           M 36.00,271.00
           C 38.02,266.59 38.55,265.23 43.00,263.00
             43.00,263.00 35.00,282.00 35.00,282.00
             37.79,276.30 41.42,269.47 48.00,268.00
             48.00,268.00 35.00,292.00 35.00,292.00
             38.11,285.66 45.39,276.21 51.00,272.00
             52.48,278.97 47.18,282.63 43.29,288.00
             37.00,296.71 34.36,300.42 29.23,310.00
             26.90,314.36 24.94,316.91 25.00,322.00
             27.31,313.89 37.62,295.80 45.00,292.00
             44.58,299.11 41.92,301.18 38.14,307.00
             33.06,314.84 21.87,331.81 22.00,341.00
             24.67,331.11 32.24,318.29 38.28,310.00
             41.43,305.68 43.13,302.42 48.00,300.00
             48.00,300.00 49.00,301.00 49.00,301.00
             47.20,308.00 44.58,309.75 40.65,315.28
             34.64,323.77 21.43,344.76 22.00,355.00
             24.51,344.27 32.36,331.11 38.59,322.00
             41.56,317.67 44.85,312.65 50.00,311.00
             49.53,318.98 44.84,322.51 40.51,329.00
             34.27,338.37 20.38,360.93 21.00,372.00
             24.60,358.62 32.84,344.47 40.49,333.00
             44.10,327.58 46.55,322.30 53.00,320.00
             53.95,327.41 45.96,335.12 41.88,341.00
             34.77,351.27 28.66,362.27 24.32,374.00
             22.49,378.94 20.31,383.68 21.00,389.00
             25.18,370.66 37.18,352.04 48.15,337.00
             52.74,330.71 58.65,321.94 66.08,319.00
             66.28,320.65 66.65,321.18 66.08,323.00
             65.21,326.46 53.28,339.48 49.99,344.00
             39.20,358.83 30.57,372.46 24.67,390.00
             22.64,396.03 20.04,402.57 21.00,409.00
             24.26,387.81 39.95,361.55 53.20,345.00
             57.91,339.12 64.73,329.14 72.00,327.00
             71.71,335.42 67.64,337.25 62.40,343.17
             62.40,343.17 47.03,363.00 47.03,363.00
             34.75,379.83 21.46,408.91 21.00,430.00
             21.00,430.00 16.00,426.00 16.00,426.00
             13.98,410.74 14.02,414.95 14.00,399.00
             14.00,399.00 13.02,384.00 13.02,384.00
             13.02,384.00 13.02,366.00 13.02,366.00
             13.02,366.00 14.00,354.00 14.00,354.00
             14.00,354.00 15.04,341.00 15.04,341.00
             15.04,341.00 15.04,333.00 15.04,333.00
             15.04,333.00 18.87,307.00 18.87,307.00
             20.63,294.75 22.50,288.33 27.42,277.00
             29.60,272.00 31.01,267.64 36.00,265.00
             36.00,265.00 36.00,271.00 36.00,271.00 Z
           M 35.00,271.00
           C 35.00,271.00 34.00,271.00 34.00,271.00
             34.00,271.00 35.00,272.00 35.00,272.00
             35.00,272.00 35.00,271.00 35.00,271.00 Z
           M 78.00,296.00
           C 78.49,287.79 84.48,284.57 90.28,279.34
             95.07,275.02 98.39,271.01 105.00,270.00
             104.02,276.09 101.53,277.40 97.17,281.39
             91.70,286.38 85.14,293.93 78.00,296.00 Z
           M 518.13,274.07
           C 527.04,272.00 519.48,282.54 517.58,285.00
             517.58,285.00 497.80,309.00 497.80,309.00
             495.73,311.56 489.28,319.66 486.73,320.92
             483.56,322.49 479.57,319.61 485.48,312.00
             485.48,312.00 504.92,289.00 504.92,289.00
             508.99,284.11 513.10,277.88 518.13,274.07 Z
           M 540.15,276.08
           C 545.66,274.88 545.12,278.88 542.94,282.42
             542.94,282.42 529.12,301.00 529.12,301.00
             527.63,302.86 524.34,307.32 521.47,305.83
             518.01,304.04 521.67,298.88 523.04,297.00
             526.47,292.30 536.17,279.12 540.15,276.08 Z
           M 81.82,307.00
           C 81.53,305.12 81.02,304.01 81.82,302.00
             82.88,297.98 97.10,286.05 101.00,282.73
             105.10,279.24 106.42,277.06 112.00,278.00
             109.83,284.36 104.80,287.75 99.99,292.17
             94.74,296.99 88.17,303.69 81.82,307.00 Z
           M 92.00,312.00
           C 89.16,305.76 92.58,303.93 97.01,299.83
             103.03,294.27 111.91,284.13 120.00,283.00
             119.24,289.49 116.62,290.65 112.00,294.98
             107.71,298.99 96.58,308.91 92.00,312.00 Z
           M 32.00,285.00
           C 32.00,285.00 31.00,289.00 31.00,289.00
             31.00,289.00 32.00,285.00 32.00,285.00 Z
           M 34.00,292.00
           C 31.50,294.42 30.27,295.42 31.00,299.00
             31.00,299.00 34.00,292.00 34.00,292.00 Z
           M 28.00,293.00
           C 28.00,293.00 27.00,293.00 27.00,293.00
             27.00,293.00 28.00,294.00 28.00,294.00
             28.00,294.00 28.00,293.00 28.00,293.00 Z
           M 538.00,298.07
           C 544.56,296.62 542.07,302.57 539.93,305.83
             539.93,305.83 527.40,322.00 527.40,322.00
             525.92,323.84 522.98,327.82 520.85,328.68
             518.00,329.83 514.65,327.42 518.23,322.00
             521.41,317.19 533.86,301.00 538.00,298.07 Z
           M 1100.00,299.51
           C 1105.54,298.65 1112.30,299.00 1118.00,299.00
             1134.13,299.00 1156.03,298.76 1167.66,312.09
             1173.88,319.22 1174.99,330.89 1175.00,340.00
             1175.00,340.00 1175.00,391.00 1175.00,391.00
             1174.89,400.12 1173.42,411.13 1166.90,417.96
             1156.69,428.64 1132.25,431.16 1118.00,431.00
             1118.00,431.00 1108.00,430.07 1108.00,430.07
             1094.46,428.82 1079.23,426.65 1070.42,415.00
             1066.35,409.63 1065.08,399.65 1065.00,393.00
             1065.00,393.00 1065.00,337.00 1065.00,337.00
             1065.08,330.14 1066.41,319.56 1070.56,314.00
             1078.01,304.03 1088.71,302.30 1100.00,299.51 Z
           M 488.00,381.00
           C 486.19,372.46 493.74,367.01 499.00,360.99
             499.00,360.99 534.45,319.00 534.45,319.00
             534.45,319.00 545.37,305.06 545.37,305.06
             546.60,303.71 548.63,301.63 550.83,302.34
             553.65,303.36 552.02,307.24 550.83,309.00
             550.83,309.00 539.71,324.01 539.71,324.01
             539.71,324.01 504.93,366.00 504.93,366.00
             499.98,371.45 495.34,378.84 488.00,381.00 Z
           M 606.02,301.16
           C 606.02,301.16 632.00,301.16 632.00,301.16
             632.00,301.16 679.00,301.16 679.00,301.16
             682.07,301.00 687.02,300.72 689.44,302.85
             692.28,305.35 691.99,311.51 692.00,315.00
             692.01,319.72 693.13,330.20 688.72,332.98
             686.77,334.21 683.27,334.00 681.00,334.00
             681.00,334.00 650.00,334.00 650.00,334.00
             647.46,334.01 643.52,333.68 641.60,335.60
             639.53,337.66 639.95,343.18 640.00,346.00
             640.15,354.15 642.78,353.99 650.00,354.00
             650.00,354.00 669.00,354.00 669.00,354.00
             671.13,354.04 673.65,353.95 675.26,355.60
             677.20,357.58 676.99,361.42 677.00,364.00
             677.02,368.07 677.99,381.82 675.40,384.40
             673.61,386.19 670.35,385.98 668.00,386.00
             668.00,386.00 649.00,386.00 649.00,386.00
             640.33,386.12 640.02,388.01 640.00,396.00
             640.00,396.00 640.00,417.00 640.00,417.00
             639.96,420.05 639.95,424.18 637.49,426.40
             635.36,428.32 631.69,427.99 629.00,428.00
             629.00,428.00 609.00,428.00 609.00,428.00
             606.86,427.96 604.23,428.04 602.60,426.40
             600.68,424.48 601.01,420.54 601.00,418.00
             601.00,418.00 601.00,330.00 601.00,330.00
             601.00,330.00 601.00,311.00 601.00,311.00
             601.00,308.93 600.77,305.26 602.02,303.56
             603.09,302.12 604.46,301.97 606.02,301.16 Z
           M 715.02,301.57
           C 720.30,300.60 732.13,300.93 738.00,301.00
             740.58,301.03 745.28,301.08 747.26,302.90
             749.38,304.85 749.00,309.33 749.00,312.00
             749.00,312.00 749.00,381.00 749.00,381.00
             749.01,385.56 748.80,390.13 752.39,393.57
             757.60,398.57 772.76,398.27 777.57,392.78
             780.33,389.63 779.99,385.89 780.00,382.00
             780.00,382.00 780.00,312.00 780.00,312.00
             780.01,309.31 779.68,305.64 781.60,303.51
             783.82,301.05 787.95,301.04 791.00,301.00
             791.00,301.00 808.00,301.00 808.00,301.00
             817.04,301.12 817.99,302.59 818.00,311.00
             818.00,311.00 818.00,383.00 818.00,383.00
             818.00,393.63 819.54,407.18 812.61,416.00
             802.56,428.79 777.32,431.17 762.00,431.00
             747.66,430.83 723.44,427.73 714.85,415.00
             710.92,409.17 710.01,401.84 710.00,395.00
             710.00,395.00 710.00,350.00 710.00,350.00
             710.00,350.00 710.00,311.00 710.00,311.00
             710.04,305.68 709.76,303.80 715.02,301.57 Z
           M 874.00,301.21
           C 874.00,301.21 913.00,301.21 913.00,301.21
             916.93,301.00 925.67,300.48 928.85,302.31
             932.52,304.42 931.99,308.35 932.00,312.00
             932.01,315.90 932.69,328.85 930.83,331.57
             929.08,334.10 925.73,333.96 923.00,334.00
             923.00,334.00 892.00,334.00 892.00,334.00
             889.35,334.00 885.52,333.78 883.21,335.17
             878.74,337.87 879.45,343.77 885.04,345.97
             893.92,349.46 924.45,346.80 934.03,361.04
             937.35,365.97 938.93,374.11 939.00,380.00
             939.18,395.68 940.77,413.48 925.00,422.64
             922.18,424.28 918.17,425.71 915.00,426.52
             909.81,427.86 907.27,427.99 902.00,428.00
             902.00,428.00 851.00,428.00 851.00,428.00
             843.34,427.98 840.16,427.70 840.00,419.00
             839.92,414.49 838.79,399.53 842.43,397.02
             844.24,395.78 847.84,396.00 850.00,396.00
             850.00,396.00 885.00,396.00 885.00,396.00
             889.63,395.99 900.38,395.71 898.16,388.04
             896.73,383.14 890.21,382.58 886.00,382.00
             875.60,380.56 860.91,379.73 852.00,374.57
             838.09,366.51 840.00,352.80 840.00,339.00
             840.00,329.11 839.51,320.32 846.53,312.17
             854.32,303.13 863.32,302.95 874.00,301.21 Z
           M 962.02,301.16
           C 962.02,301.16 989.00,301.16 989.00,301.16
             989.00,301.16 1033.00,301.16 1033.00,301.16
             1042.56,301.12 1043.98,302.81 1044.00,312.00
             1044.01,316.36 1045.25,330.61 1041.69,332.98
             1039.84,334.21 1036.19,334.00 1034.00,334.00
             1023.51,334.02 1020.02,332.90 1020.10,345.00
             1020.10,345.00 1020.10,385.00 1020.10,385.00
             1020.00,386.50 1019.94,389.59 1020.10,390.94
             1022.53,399.05 1037.16,391.92 1042.26,396.82
             1044.36,398.85 1044.00,403.28 1044.00,406.00
             1044.01,410.49 1045.27,424.28 1041.57,426.83
             1039.52,428.24 1035.45,428.00 1033.00,428.00
             1033.00,428.00 976.00,428.00 976.00,428.00
             959.29,428.00 957.07,429.47 957.00,419.00
             957.00,419.00 957.00,403.00 957.00,403.00
             957.04,400.87 956.95,398.35 958.60,396.74
             960.71,394.68 965.23,395.00 968.00,395.00
             978.85,394.98 980.98,396.02 980.90,385.00
             980.90,385.00 980.90,345.00 980.90,345.00
             981.00,343.45 981.06,340.43 980.90,339.02
             978.29,329.82 963.06,336.51 958.74,333.01
             956.62,331.30 957.00,326.50 957.00,324.00
             956.99,320.31 956.28,305.91 958.02,303.56
             959.09,302.12 960.46,301.97 962.02,301.16 Z
           M 1237.00,364.00
           C 1237.00,364.00 1237.00,419.00 1237.00,419.00
             1236.95,421.73 1236.97,424.47 1234.69,426.40
             1232.44,428.29 1228.77,427.99 1226.00,428.00
             1226.00,428.00 1210.00,428.00 1210.00,428.00
             1207.23,428.00 1202.71,428.32 1200.60,426.26
             1198.66,424.36 1199.01,420.53 1199.00,418.00
             1199.00,418.00 1199.00,329.00 1199.00,329.00
             1199.00,329.00 1199.00,310.00 1199.00,310.00
             1199.01,307.72 1198.71,304.76 1200.57,303.09
             1202.94,300.97 1207.99,301.02 1211.00,301.00
             1211.00,301.00 1217.00,301.00 1217.00,301.00
             1220.97,301.05 1226.43,301.56 1229.96,303.45
             1233.54,305.37 1237.69,310.83 1240.42,314.00
             1240.42,314.00 1257.15,333.00 1257.15,333.00
             1260.99,337.35 1263.71,341.47 1269.00,344.00
             1269.00,344.00 1269.00,311.00 1269.00,311.00
             1269.02,308.51 1268.81,305.49 1270.60,303.51
             1273.96,299.78 1289.74,300.98 1295.00,301.00
             1297.97,301.01 1302.15,300.87 1304.57,302.85
             1307.43,305.20 1306.99,309.66 1307.00,313.00
             1307.00,313.00 1307.00,401.00 1307.00,401.00
             1307.00,406.36 1308.39,423.08 1304.57,426.40
             1302.38,428.31 1298.74,427.99 1296.00,428.00
             1296.00,428.00 1278.00,428.00 1278.00,428.00
             1275.27,427.96 1271.92,428.10 1270.17,425.57
             1268.31,422.85 1269.06,410.86 1269.00,407.00
             1268.86,398.89 1265.07,395.99 1260.08,390.00
             1254.41,383.20 1243.42,368.70 1237.00,364.00 Z
           M 28.00,303.00
           C 28.00,303.00 27.00,307.00 27.00,307.00
             27.00,307.00 28.00,303.00 28.00,303.00 Z
           M 474.16,326.08
           C 480.26,324.81 479.77,329.10 477.06,332.96
             477.06,332.96 459.91,352.00 459.91,352.00
             458.23,353.69 455.03,357.12 452.33,355.83
             448.51,354.01 452.24,349.53 453.82,347.72
             453.82,347.72 474.16,326.08 474.16,326.08 Z
           M 22.00,434.00
           C 22.00,405.23 42.52,371.97 61.05,351.00
             66.60,344.72 74.51,332.37 83.00,331.00
             82.85,332.90 82.88,334.15 82.07,335.96
             82.07,335.96 64.00,357.00 64.00,357.00
             51.83,371.13 40.53,387.82 33.15,405.00
             33.15,405.00 26.21,425.00 26.21,425.00
             25.06,428.84 25.50,431.57 22.00,434.00 Z
           M 530.02,343.08
           C 536.95,341.65 534.39,347.61 531.94,351.00
             531.94,351.00 519.25,366.00 519.25,366.00
             517.57,367.99 513.95,372.71 511.72,373.72
             509.05,374.93 504.29,373.47 508.86,367.00
             512.42,361.98 525.49,346.23 530.02,343.08 Z
           M 26.00,446.00
           C 23.40,436.84 26.94,427.57 30.19,419.00
             38.14,398.09 48.16,382.34 62.26,365.00
             67.27,358.84 74.68,348.88 82.03,346.00
             82.33,347.95 82.72,348.98 82.03,351.00
             81.04,354.10 68.67,367.33 65.59,371.00
             53.66,385.21 43.19,400.90 35.87,418.00
             35.87,418.00 30.16,434.00 30.16,434.00
             28.86,438.73 29.15,442.06 26.00,446.00 Z
           M 432.92,353.17
           C 438.52,354.22 435.45,358.18 432.92,361.00
             432.92,361.00 413.00,382.00 413.00,382.00
             413.00,382.00 346.00,448.00 346.00,448.00
             346.00,448.00 328.58,465.00 328.58,465.00
             326.63,466.83 322.56,471.08 319.96,471.43
             317.01,471.81 313.74,469.18 318.83,463.61
             318.83,463.61 339.41,443.20 339.41,443.20
             339.41,443.20 382.00,401.00 382.00,401.00
             382.00,401.00 401.34,382.39 401.34,382.39
             401.34,382.39 421.00,363.00 421.00,363.00
             424.63,359.37 428.05,355.04 432.92,353.17 Z
           M 30.00,456.00
           C 26.69,448.71 30.10,440.16 32.69,433.00
             39.59,414.01 50.56,396.87 62.88,381.00
             66.28,376.63 72.30,368.66 76.09,365.04
             77.42,363.77 80.32,360.96 82.38,362.17
             84.55,363.44 82.70,366.61 81.77,368.00
             81.77,368.00 69.92,382.00 69.92,382.00
             60.04,393.83 46.32,413.94 40.17,428.00
             40.17,428.00 30.00,456.00 30.00,456.00 Z
           M 91.00,405.00
           C 89.88,398.22 93.65,395.71 97.93,391.00
             104.38,383.89 118.55,366.88 127.00,364.00
             128.46,370.47 125.33,372.61 121.00,377.00
             121.00,377.00 106.28,392.00 106.28,392.00
             101.69,397.22 97.96,403.01 91.00,405.00 Z
           M 520.02,373.13
           C 523.06,372.61 525.45,373.17 524.37,377.04
             523.28,380.91 508.99,395.95 505.42,400.00
             503.72,401.92 500.38,406.30 497.33,404.83
             493.44,402.96 497.44,397.90 499.02,396.01
             502.93,391.32 516.08,375.79 520.02,373.13 Z
           M 429.94,375.25
           C 435.43,375.77 433.18,380.03 430.77,383.00
             430.77,383.00 412.00,402.00 412.00,402.00
             412.00,402.00 347.72,465.44 347.72,465.44
             347.72,465.44 332.00,481.00 332.00,481.00
             330.15,482.83 326.71,486.69 324.06,486.97
             318.38,487.57 321.37,481.12 323.15,479.00
             323.15,479.00 343.00,459.00 343.00,459.00
             343.00,459.00 401.00,402.00 401.00,402.00
             407.23,395.77 423.13,378.35 429.94,375.25 Z
           M 31.00,476.00
           C 31.00,476.00 31.00,472.00 31.00,472.00
             31.04,447.97 49.23,415.61 63.66,397.00
             63.66,397.00 75.56,382.25 75.56,382.25
             76.94,380.63 80.17,376.90 82.03,376.16
             84.87,375.04 85.96,377.40 85.09,380.02
             84.10,382.98 78.82,388.35 76.59,391.00
             61.90,408.45 48.79,427.66 40.46,449.00
             40.46,449.00 35.29,466.00 35.29,466.00
             34.36,470.39 35.00,473.36 31.00,476.00 Z
           M 128.14,378.15
           C 134.50,377.54 130.58,383.51 128.14,386.08
             128.14,386.08 108.72,407.00 108.72,407.00
             106.86,409.14 101.43,415.82 99.02,416.34
             98.16,416.76 97.35,416.74 96.62,416.34
             93.62,413.88 97.59,408.85 99.19,407.00
             104.51,400.82 121.72,381.79 128.14,378.15 Z
           M 18.00,380.00
           C 18.00,380.00 18.00,385.00 18.00,385.00
             18.00,385.00 18.00,380.00 18.00,380.00 Z
           M 435.94,388.17
           C 438.77,387.88 440.34,388.64 439.34,392.02
             438.44,395.07 433.34,399.66 431.00,402.00
             431.00,402.00 394.08,439.39 394.08,439.39
             391.59,441.81 382.42,451.48 379.85,452.12
             376.93,452.85 374.81,450.37 376.22,447.28
             377.19,445.14 384.19,438.48 386.25,436.41
             386.25,436.41 414.91,408.03 414.91,408.03
             419.79,403.06 430.79,391.37 435.94,388.17 Z
           M 38.00,489.00
           C 34.10,486.39 34.84,483.28 35.42,479.00
             36.57,470.55 37.10,468.03 40.09,460.00
             47.56,439.91 57.09,422.90 70.40,406.00
             75.49,399.53 79.24,392.67 87.00,389.00
             88.58,395.34 85.82,397.21 82.00,402.00
             82.00,402.00 68.88,419.00 68.88,419.00
             57.21,435.74 49.83,447.62 42.99,467.00
             42.99,467.00 40.17,475.00 40.17,475.00
             40.17,475.00 38.00,489.00 38.00,489.00 Z
           M 132.85,391.33
           C 138.32,393.45 133.21,398.16 130.79,400.75
             130.79,400.75 109.72,424.00 109.72,424.00
             108.07,425.89 103.72,431.38 101.14,431.39
             94.57,431.44 102.36,421.67 103.58,420.28
             103.58,420.28 121.97,400.01 121.97,400.01
             125.35,396.52 128.10,392.80 132.85,391.33 Z
           M 40.00,502.00
           C 37.74,494.06 40.02,489.68 41.60,482.00
             45.32,463.96 58.27,442.13 68.66,427.00
             71.30,423.16 81.41,408.55 84.96,407.17
             87.93,406.01 88.96,408.50 88.21,411.02
             87.44,413.59 81.73,420.51 79.79,423.00
             66.00,440.74 52.96,462.59 45.89,484.00
             45.89,484.00 42.00,502.00 42.00,502.00
             42.00,502.00 40.00,502.00 40.00,502.00 Z
           M 431.98,411.08
           C 438.38,409.78 437.11,414.65 434.31,418.17
             428.18,425.85 419.88,432.94 412.91,440.00
             411.04,441.89 407.33,445.91 404.32,444.60
             399.72,442.60 405.31,436.79 407.02,435.00
             412.07,429.72 426.76,414.45 431.98,411.08 Z
           M 47.00,518.00
           C 45.38,516.95 44.83,516.87 44.04,514.86
             42.39,510.67 46.04,495.91 47.24,491.00
             51.41,473.88 64.12,453.42 74.14,439.00
             78.88,432.18 83.86,423.42 91.00,419.00
             91.76,420.77 92.54,421.93 92.22,424.00
             91.84,426.44 88.88,429.99 87.37,432.00
             87.37,432.00 75.59,448.00 75.59,448.00
             61.17,468.67 49.06,492.58 47.00,518.00 Z
           M 52.00,537.00
           C 44.65,532.38 49.75,516.28 51.20,509.00
             55.14,489.24 68.81,466.62 80.09,450.00
             83.84,444.46 90.65,433.95 97.00,432.00
             98.47,439.02 95.49,440.64 91.47,446.00
             91.47,446.00 77.91,465.00 77.91,465.00
             63.90,487.31 52.24,510.03 52.00,537.00 Z
           M 59.00,557.00
           C 53.94,553.82 53.83,545.51 54.04,540.00
             55.07,513.49 68.09,488.62 82.51,467.00
             82.51,467.00 95.53,449.04 95.53,449.04
             96.88,447.36 99.79,443.39 102.41,445.13
             104.81,446.72 102.98,450.26 101.85,452.00
             101.85,452.00 87.88,471.00 87.88,471.00
             71.44,494.62 53.68,527.30 59.00,557.00 Z
           M 65.00,569.00
           C 57.44,564.47 60.10,547.57 61.27,540.00
             64.53,518.96 78.02,494.40 90.02,477.00
             92.11,473.98 101.64,460.29 104.30,459.16
             106.87,458.08 109.22,460.37 107.78,464.00
             107.78,464.00 97.12,479.00 97.12,479.00
             81.32,501.65 66.93,525.94 64.17,554.00
             64.17,554.00 65.00,569.00 65.00,569.00 Z
           M 71.00,580.00
           C 65.83,576.65 66.01,570.56 66.00,565.00
             66.00,565.00 66.00,559.00 66.00,559.00
             66.04,533.77 84.11,503.03 98.42,483.00
             98.42,483.00 112.60,463.97 112.60,463.97
             114.02,462.21 117.03,458.43 119.67,459.34
             123.04,460.48 120.87,465.14 119.67,467.00
             119.67,467.00 105.58,485.00 105.58,485.00
             93.12,501.77 76.80,527.46 72.45,548.00
             68.88,564.89 70.99,565.32 71.00,580.00 Z
           M 442.00,462.08
           C 444.90,461.52 448.29,461.97 446.83,466.02
             445.71,469.13 435.89,479.56 432.12,477.83
             429.92,476.66 430.90,473.75 432.12,472.00
             434.09,468.23 438.38,464.40 442.00,462.08 Z
           M 360.95,462.96
           C 367.83,463.25 363.55,469.14 360.95,472.00
             360.95,472.00 346.00,487.00 346.00,487.00
             343.99,488.99 340.74,492.53 338.04,493.35
             334.65,494.39 331.42,491.68 336.15,486.00
             340.23,481.10 355.82,465.25 360.95,462.96 Z
           M 833.00,462.21
           C 833.00,462.21 873.00,462.21 873.00,462.21
             876.05,462.04 880.18,462.05 882.40,464.51
             885.03,467.42 884.08,482.56 884.00,487.00
             883.82,496.62 880.04,495.00 866.00,495.00
             858.29,495.00 838.56,493.18 833.70,499.22
             830.86,502.76 831.01,507.73 831.00,512.00
             831.00,512.00 831.00,541.00 831.00,541.00
             831.02,544.46 830.92,547.91 832.85,550.96
             835.94,555.83 839.83,555.97 845.00,556.00
             845.00,556.00 874.00,556.00 874.00,556.00
             876.58,556.01 880.42,555.80 882.40,557.74
             884.34,559.64 883.99,563.47 884.00,566.00
             884.00,566.00 884.00,581.00 884.00,581.00
             883.94,583.98 884.04,587.01 880.85,588.40
             878.72,589.33 868.92,589.00 866.00,589.00
             866.00,589.00 834.00,589.00 834.00,589.00
             828.10,588.99 823.76,588.45 818.00,587.11
             813.31,586.03 809.08,584.70 805.00,582.04
             790.87,572.83 792.00,556.71 792.00,542.00
             792.00,542.00 792.00,518.00 792.00,518.00
             792.00,505.30 790.15,485.33 798.39,475.02
             807.57,463.52 820.17,464.24 833.00,462.21 Z
           M 904.02,462.57
           C 904.02,462.57 931.00,462.00 931.00,462.00
             931.00,462.00 981.00,462.00 981.00,462.00
             986.19,462.00 1000.03,460.60 1002.98,465.28
             1004.21,467.23 1004.00,470.73 1004.00,473.00
             1004.01,477.36 1005.25,491.61 1001.69,493.98
             999.84,495.21 996.19,495.00 994.00,495.00
             989.23,495.01 975.71,493.70 972.74,497.31
             970.71,499.77 971.00,503.97 971.00,507.00
             971.00,507.00 971.00,569.00 971.00,569.00
             971.00,573.17 972.20,585.63 968.69,587.98
             966.84,589.21 963.19,589.00 961.00,589.00
             961.00,589.00 941.00,589.00 941.00,589.00
             938.47,588.98 935.47,589.18 933.43,587.40
             931.01,585.30 931.04,581.93 931.00,579.00
             931.00,579.00 931.00,516.00 931.00,516.00
             931.00,511.73 932.23,498.38 928.69,496.02
             926.84,494.79 923.19,495.00 921.00,495.00
             916.62,494.99 902.41,496.26 900.02,492.69
             898.79,490.84 899.00,487.19 899.00,485.00
             898.99,481.14 898.33,467.96 900.02,465.28
             901.16,463.47 902.25,463.32 904.02,462.57 Z
           M 1084.10,556.00
           C 1088.58,556.00 1103.43,554.72 1105.98,558.43
             1107.73,560.97 1107.07,577.05 1107.00,581.00
             1106.96,583.14 1107.04,585.77 1105.40,587.40
             1103.48,589.32 1099.54,588.99 1097.00,589.00
             1097.00,589.00 1039.00,589.00 1039.00,589.00
             1025.44,589.00 1020.08,591.09 1020.00,579.00
             1019.97,573.81 1018.42,559.97 1023.15,557.17
             1025.97,555.50 1032.58,556.06 1036.00,556.00
             1044.15,555.85 1043.99,553.22 1044.00,546.00
             1044.00,546.00 1044.00,503.00 1044.00,503.00
             1043.85,495.11 1041.09,495.04 1034.00,495.00
             1030.85,494.98 1023.85,495.65 1021.60,493.40
             1019.68,491.48 1020.01,487.54 1020.00,485.00
             1019.99,480.31 1018.72,466.71 1022.31,463.85
             1024.95,461.76 1029.78,462.01 1033.00,462.00
             1033.00,462.00 1095.00,462.00 1095.00,462.00
             1105.50,462.02 1106.98,462.35 1107.00,472.00
             1107.01,476.18 1108.02,490.79 1105.40,493.40
             1100.83,497.97 1086.51,491.01 1084.10,499.06
             1083.94,500.41 1084.00,503.50 1084.10,505.00
             1084.10,505.00 1084.10,556.00 1084.10,556.00 Z
           M 78.00,594.00
           C 73.14,590.57 73.07,583.55 73.00,578.00
             72.92,570.63 73.12,563.27 74.46,556.00
             78.00,536.92 93.79,510.90 104.88,495.00
             104.88,495.00 120.26,475.00 120.26,475.00
             121.74,473.22 124.94,468.75 127.71,470.17
             130.94,471.82 128.40,476.04 127.06,478.00
             127.06,478.00 112.37,497.00 112.37,497.00
             97.09,517.35 77.04,549.87 77.00,576.00
             77.00,576.00 78.00,594.00 78.00,594.00 Z
           M 252.96,472.30
           C 257.68,472.64 256.91,475.82 254.72,479.00
             252.19,482.67 243.43,491.83 240.00,494.94
             238.37,496.42 235.75,498.98 233.32,497.83
             229.77,496.15 232.57,491.92 234.11,490.00
             237.57,485.70 248.35,474.64 252.96,472.30 Z
           M 368.98,474.08
           C 375.92,472.67 373.72,478.60 370.85,482.00
             370.85,482.00 356.41,496.25 356.41,496.25
             354.76,497.90 350.84,502.12 348.85,502.91
             345.70,504.16 341.18,501.51 346.06,495.75
             349.74,491.41 364.78,476.79 368.98,474.08 Z
           M 442.98,475.17
           C 452.91,474.25 443.74,485.53 439.57,487.12
             436.64,488.23 434.19,486.12 435.32,482.98
             436.52,479.67 440.12,476.92 442.98,475.17 Z
           M 444.04,487.96
           C 453.14,488.36 443.60,498.96 439.93,500.00
             436.80,500.88 434.82,498.27 436.23,495.08
             437.56,492.06 441.17,489.32 444.04,487.96 Z
           M 374.86,489.32
           C 377.20,490.23 378.18,491.12 377.34,494.00
             376.31,497.57 365.39,507.03 362.13,510.08
             360.48,511.62 358.34,513.96 356.02,514.34
             352.63,514.91 351.04,511.62 354.39,507.29
             358.02,502.59 369.52,490.85 374.86,489.32 Z
           M 454.00,493.08
           C 457.90,492.32 460.50,493.77 458.21,498.00
             457.03,500.17 449.12,508.08 447.00,509.85
             445.56,511.05 443.45,512.83 441.45,511.83
             438.63,510.44 440.16,506.84 441.45,505.00
             443.97,501.38 450.27,495.47 454.00,493.08 Z
           M 327.96,495.25
           C 334.91,494.80 332.14,501.72 327.96,503.81
             324.71,505.42 322.04,503.92 322.74,500.94
             323.41,498.13 325.71,496.63 327.96,495.25 Z
           M 243.96,500.07
           C 251.65,498.41 247.89,506.81 243.96,509.24
             240.05,511.66 236.95,509.33 238.17,505.98
             239.14,503.31 241.72,501.56 243.96,500.07 Z
           M 317.94,525.17
           C 326.31,526.66 317.43,536.40 313.43,534.60
             309.51,532.84 312.46,527.27 317.94,525.17 Z
           M 415.98,525.88
           C 423.51,525.95 418.90,531.94 415.98,534.83
             415.98,534.83 388.28,561.00 388.28,561.00
             386.67,562.47 384.05,565.21 382.00,565.87
             379.16,566.79 377.14,564.83 378.17,561.98
             379.09,559.44 385.79,553.21 388.00,551.00
             393.53,545.47 409.86,528.74 415.98,525.88 Z
           M 396.98,527.17
           C 401.29,526.77 402.49,529.25 400.24,532.96
             398.99,535.03 389.21,544.10 387.02,544.85
             383.65,545.99 381.34,543.00 383.53,539.43
             385.68,535.92 393.47,529.30 396.98,527.17 Z
           M 97.00,531.00
           C 97.00,531.00 99.00,531.00 99.00,531.00
             99.74,533.64 100.19,535.21 99.61,538.00
             99.61,538.00 89.52,561.00 89.52,561.00
             82.56,581.66 83.23,586.09 86.00,607.00
             79.15,604.55 80.35,594.93 79.72,589.00
             77.77,570.77 87.01,546.05 97.00,531.00 Z
           M 326.99,535.08
           C 335.83,533.32 330.94,541.87 326.01,544.33
             322.47,546.11 320.28,543.77 321.25,540.96
             322.17,538.26 324.75,536.54 326.99,535.08 Z
           M 347.00,534.78
           C 349.89,534.46 352.31,535.17 351.16,538.85
             350.55,540.77 348.36,542.69 346.96,544.09
             344.42,546.61 336.84,554.66 334.02,555.68
             330.56,556.93 327.73,553.84 331.32,549.00
             333.49,546.07 343.74,536.50 347.00,534.78 Z
           M 416.94,543.88
           C 419.65,543.91 421.35,544.63 420.35,547.93
             419.61,550.34 415.72,553.68 413.83,555.44
             413.83,555.44 397.96,570.28 397.96,570.28
             396.06,571.97 392.15,576.21 389.33,574.83
             385.16,572.80 390.45,567.26 392.17,565.58
             397.64,560.22 410.73,546.83 416.94,543.88 Z
           M 446.98,546.84
           C 452.12,546.50 452.55,549.17 449.68,553.00
             447.71,555.65 439.16,563.57 436.06,564.26
             433.03,564.93 431.56,562.41 433.62,559.00
             435.95,555.11 442.91,548.81 446.98,546.84 Z
           M 101.00,547.00
           C 106.58,548.95 105.27,553.57 103.10,558.00
             97.08,570.32 90.49,588.09 91.04,602.00
             91.27,607.79 93.82,613.25 93.00,619.00
             86.46,613.08 86.91,601.26 87.00,593.00
             87.21,575.77 93.78,562.08 101.00,547.00 Z
           M 348.98,551.99
           C 353.06,551.33 355.21,552.97 352.58,557.00
             350.74,559.83 342.03,569.21 338.32,567.60
             335.87,566.54 336.54,563.79 337.62,562.00
             339.90,558.18 345.11,554.09 348.98,551.99 Z
           M 448.94,558.05
           C 452.32,558.60 453.55,560.41 451.38,563.58
             449.85,565.82 439.44,575.71 436.89,575.99
             434.14,576.28 432.52,573.45 434.62,570.04
             436.84,566.43 445.02,559.58 448.94,558.05 Z
           M 418.85,559.30
           C 422.54,560.78 421.84,563.07 419.68,566.00
             417.66,568.74 409.64,576.42 406.15,576.38
             402.09,576.32 403.92,571.89 405.32,570.00
             408.40,565.82 413.79,560.58 418.85,559.30 Z
           M 500.00,579.00
           C 500.15,577.10 500.10,575.87 501.01,574.09
             502.59,571.00 511.72,562.19 515.01,561.05
             517.08,560.41 517.99,560.73 520.00,561.05
             518.12,568.58 507.85,578.37 500.00,579.00 Z
           M 104.00,630.82
           C 102.63,631.04 101.76,631.35 100.39,630.82
             96.51,628.67 95.56,618.07 95.00,614.00
             93.20,600.84 96.34,587.32 100.95,575.00
             102.86,569.90 104.45,563.87 110.00,562.00
             112.09,570.96 107.55,573.90 104.90,582.00
             100.25,596.16 95.45,616.12 103.00,630.00
             103.00,630.00 102.09,617.00 102.09,617.00
             102.51,609.58 103.36,601.97 106.00,595.00
             106.00,595.00 109.00,595.00 109.00,595.00
             110.91,602.90 107.90,611.52 107.59,620.00
             107.59,620.00 110.00,641.00 110.00,641.00
             105.67,638.14 104.94,636.00 104.00,630.82 Z
           M 355.98,563.99
           C 360.10,563.31 361.73,565.09 359.38,569.00
             358.09,571.16 353.31,575.95 351.00,576.92
             347.51,578.39 344.63,575.95 346.79,572.00
             348.69,568.54 352.61,565.82 355.98,563.99 Z
           M 529.94,564.25
           C 534.05,564.62 534.38,567.09 532.01,570.20
             530.03,572.78 519.81,582.43 517.05,583.04
             514.23,583.65 511.94,581.53 515.32,577.00
             518.44,572.79 525.20,566.40 529.94,564.25 Z
           M 543.92,568.17
           C 549.63,568.89 546.29,573.31 543.92,576.00
             543.92,576.00 530.00,589.03 530.00,589.03
             528.02,590.92 524.72,594.45 522.06,595.12
             515.36,596.79 520.32,588.91 522.06,587.00
             526.18,582.48 538.80,570.36 543.92,568.17 Z
           M 552.98,575.91
           C 558.81,575.11 557.69,578.62 554.85,582.00
             552.71,584.54 542.88,593.45 540.00,595.73
             538.41,597.00 533.82,600.82 532.17,597.63
             530.83,595.04 534.30,591.87 535.93,590.30
             540.14,586.23 548.20,578.37 552.98,575.91 Z
           M 133.00,605.00
           C 124.85,602.15 131.55,592.79 134.23,588.00
             135.36,586.00 136.82,583.11 139.05,582.17
             144.44,579.89 142.13,587.91 141.05,590.00
             141.05,590.00 137.66,596.00 137.66,596.00
             137.66,596.00 133.00,605.00 133.00,605.00 Z
           M 374.00,583.88
           C 381.56,583.95 377.38,591.09 373.04,592.04
             368.92,592.94 366.44,587.63 374.00,583.88 Z
           M 559.98,585.08
           C 568.84,583.28 562.08,592.58 558.02,594.34
             554.96,595.67 553.15,593.75 554.17,590.98
             555.15,588.29 557.72,586.56 559.98,585.08 Z
           M 385.00,596.00
           C 384.43,587.01 392.28,584.58 394.38,586.08
             396.08,587.28 395.27,589.57 394.38,590.99
             392.00,594.79 389.14,595.67 385.00,596.00 Z
           M 449.94,591.05
           C 455.60,591.99 452.71,596.18 449.94,598.89
             444.12,604.60 441.97,601.56 438.00,603.01
             438.00,603.01 432.00,606.44 432.00,606.44
             430.43,607.04 428.11,607.34 427.17,605.53
             425.84,602.98 429.32,600.02 431.02,598.63
             437.18,593.61 438.22,596.34 442.00,595.24
             442.00,595.24 449.94,591.05 449.94,591.05 Z
           M 568.99,592.79
           C 576.90,591.98 571.87,599.26 568.01,600.68
             565.11,601.75 563.12,599.72 564.17,597.02
             565.08,594.68 566.96,593.85 568.99,592.79 Z
           M 421.07,595.78
           C 429.03,594.99 424.52,602.35 420.01,604.01
             416.78,605.20 414.74,603.22 415.99,600.28
             416.97,597.99 419.00,596.85 421.07,595.78 Z
           M 141.48,602.17
           C 151.16,601.07 139.90,619.30 138.52,620.26
             136.12,621.93 134.00,619.62 134.43,616.00
             134.89,612.20 138.77,604.79 141.48,602.17 Z
           M 408.00,688.15
           C 410.53,680.92 422.12,672.78 428.00,667.73
             428.00,667.73 479.00,624.25 479.00,624.25
             482.44,621.38 495.91,610.10 499.00,608.85
             500.82,608.12 502.12,608.13 504.00,608.00
             502.98,616.59 492.22,622.55 486.04,627.92
             486.04,627.92 432.00,673.20 432.00,673.20
             428.46,676.03 415.20,687.52 412.00,688.15
             410.22,688.74 409.60,688.33 408.00,688.15 Z
           M 442.00,702.00
           C 442.26,700.49 442.19,699.72 443.02,698.29
             444.69,695.40 459.45,683.68 463.00,680.80
             463.00,680.80 520.00,634.08 520.00,634.08
             520.00,634.08 538.42,619.33 538.42,619.33
             540.02,618.12 544.27,614.63 546.26,616.73
             548.27,618.85 544.34,622.60 542.98,623.96
             542.98,623.96 525.00,639.39 525.00,639.39
             525.00,639.39 470.00,683.75 470.00,683.75
             463.20,689.36 450.48,701.04 442.00,702.00 Z
           M 112.00,617.00
           C 112.00,617.00 114.00,617.00 114.00,617.00
             114.00,617.00 115.89,622.00 115.89,622.00
             115.89,622.00 115.89,644.00 115.89,644.00
             115.89,644.00 114.00,644.00 114.00,644.00
             110.64,636.89 109.86,624.52 112.00,617.00 Z
           M 472.00,622.00
           C 469.00,629.29 460.94,634.34 455.00,639.25
             455.00,639.25 419.00,669.58 419.00,669.58
             416.99,671.24 409.91,677.16 408.02,677.93
             405.30,679.04 403.07,677.83 404.17,674.94
             405.29,672.00 415.10,663.77 418.00,661.27
             418.00,661.27 453.17,631.74 453.17,631.74
             458.22,627.22 464.79,620.38 472.00,622.00 Z
           M 508.00,621.78
           C 504.66,629.04 491.35,638.78 485.00,644.08
             485.00,644.08 430.00,688.75 430.00,688.75
             430.00,688.75 415.00,700.47 415.00,700.47
             411.20,702.48 409.10,700.68 410.17,698.23
             410.83,696.71 414.66,693.28 416.00,692.02
             416.00,692.02 431.00,679.25 431.00,679.25
             431.00,679.25 483.00,636.25 483.00,636.25
             486.69,633.20 499.21,622.45 503.00,621.78
             505.09,621.06 506.06,621.51 508.00,621.78 Z
           M 469.00,692.00
           C 472.07,685.81 483.31,677.96 489.00,673.40
             489.00,673.40 534.00,637.20 534.00,637.20
             534.00,637.20 547.00,626.91 547.00,626.91
             550.74,624.75 552.95,626.13 551.83,629.06
             550.40,632.80 538.65,641.87 535.00,644.92
             535.00,644.92 491.00,680.34 491.00,680.34
             487.83,682.82 476.11,692.47 473.00,692.86
             471.24,693.08 470.50,692.52 469.00,692.00 Z
           M 420.00,705.05
           C 423.41,697.82 436.48,688.73 443.00,683.39
             443.00,683.39 492.00,643.20 492.00,643.20
             495.84,640.12 510.39,627.85 514.00,626.96
             515.67,626.48 516.44,626.80 518.00,626.96
             516.29,634.85 504.24,642.61 498.00,647.60
             498.00,647.60 445.00,690.39 445.00,690.39
             441.86,692.94 427.76,704.17 425.00,705.05
             422.82,705.84 422.07,705.44 420.00,705.05 Z
           M 553.94,635.88
           C 556.03,635.90 558.03,636.03 556.83,639.02
             555.75,641.73 545.81,649.25 543.00,651.59
             543.00,651.59 499.96,685.58 499.96,685.58
             497.47,687.50 491.44,692.80 489.02,693.78
             486.19,694.93 484.07,693.77 485.17,690.96
             486.48,687.61 498.56,678.82 502.00,675.87
             502.00,675.87 533.00,651.20 533.00,651.20
             538.50,646.80 547.88,638.61 553.94,635.88 Z
           M 423.94,642.84
           C 429.40,643.00 427.53,646.92 424.85,649.71
             424.85,649.71 411.00,661.56 411.00,661.56
             409.05,663.17 405.63,666.10 403.08,666.44
             397.39,667.21 400.99,661.42 403.08,659.42
             407.65,655.02 418.49,645.03 423.94,642.84 Z
           M 491.00,700.19
           C 494.93,692.70 502.61,687.71 509.00,682.60
             509.00,682.60 545.83,654.04 545.83,654.04
             551.47,649.82 558.61,641.74 566.00,643.00
             562.59,650.20 554.21,655.58 548.00,660.42
             548.00,660.42 512.00,688.60 512.00,688.60
             508.80,691.15 498.37,699.71 495.00,700.19
             493.23,700.73 492.60,700.34 491.00,700.19 Z
           M 500.00,706.00
           C 501.22,698.63 509.60,694.39 515.00,689.92
             515.00,689.92 559.00,656.23 559.00,656.23
             561.10,654.65 566.61,650.39 568.94,649.87
             571.23,649.36 572.81,650.62 571.83,652.97
             570.78,655.51 557.88,665.10 555.00,667.40
             555.00,667.40 519.00,695.00 519.00,695.00
             513.17,699.31 507.41,704.97 500.00,706.00 Z
           M 509.00,709.00
           C 512.81,702.06 519.92,698.00 526.00,693.20
             526.00,693.20 563.00,665.21 563.00,665.21
             565.19,663.51 571.78,658.45 573.98,657.47
             576.34,656.42 579.09,656.77 577.85,659.97
             576.74,662.81 566.83,669.94 564.00,672.20
             564.00,672.20 527.00,700.34 527.00,700.34
             521.41,704.23 516.20,710.53 509.00,709.00 Z
           M 515.00,717.00
           C 516.15,710.02 523.64,706.29 529.00,702.42
             529.00,702.42 561.00,678.85 561.00,678.85
             566.64,674.72 571.98,669.43 579.00,668.00
             577.84,674.99 570.27,678.73 565.00,682.77
             565.00,682.77 534.00,705.77 534.00,705.77
             528.86,709.66 521.30,716.00 515.00,717.00 Z
           M 530.00,716.00
           C 531.77,710.00 535.18,708.22 540.00,704.63
             540.00,704.63 560.00,690.50 560.00,690.50
             564.40,687.50 568.21,682.76 573.00,687.00
             566.92,692.57 552.20,703.06 545.00,708.02
             540.04,711.44 536.08,715.08 530.00,716.00 Z
           M 609.00,721.00
           C 610.55,716.20 613.01,715.28 617.00,712.42
             623.22,707.97 631.72,700.74 639.00,699.00
             637.45,704.04 635.14,705.06 631.00,708.12
             625.28,712.34 615.85,719.96 609.00,721.00 Z
           M 587.00,725.00
           C 595.59,720.60 606.74,710.58 615.00,709.00
             613.30,714.33 609.49,716.19 605.00,719.16
             605.00,719.16 584.00,732.95 584.00,732.95
             580.62,735.09 574.30,740.45 572.00,735.00
             572.00,735.00 555.00,744.00 555.00,744.00
             555.00,744.00 554.00,743.00 554.00,743.00
             556.77,737.43 560.91,735.74 566.00,732.58
             566.00,732.58 587.00,720.00 587.00,720.00
             587.00,720.00 587.00,725.00 587.00,725.00 Z
           M 587.00,725.00
           C 587.00,725.00 586.00,725.00 586.00,725.00
             586.00,725.00 587.00,726.00 587.00,726.00
             587.00,726.00 587.00,725.00 587.00,725.00 Z
           M 585.00,726.00
           C 585.00,726.00 584.00,726.00 584.00,726.00
             584.00,726.00 585.00,727.00 585.00,727.00
             585.00,727.00 585.00,726.00 585.00,726.00 Z
           M 578.00,731.00
           C 578.00,731.00 573.00,734.00 573.00,734.00
             573.00,734.00 578.00,731.00 578.00,731.00 Z
           M 573.00,734.00
           C 573.00,734.00 572.00,734.00 572.00,734.00
             572.00,734.00 573.00,735.00 573.00,735.00
             573.00,735.00 573.00,734.00 573.00,734.00 Z" />
</svg>
